<svg xmlns="http://www.w3.org/2000/svg" width="121" height="35" viewBox="0 0 121 35">
    <defs>
        <linearGradient id="linear-gradient" x1=".878" x2=".081" y1=".637" y2=".056" gradientUnits="objectBoundingBox">
            <stop offset="0" stop-color="#006840"/>
            <stop offset=".4" stop-color="#007a48"/>
            <stop offset="1" stop-color="#86c440"/>
        </linearGradient>
        <linearGradient id="linear-gradient-2" x1=".158" x2=".828" y1=".018" y2=".841" gradientUnits="objectBoundingBox">
            <stop offset="0" stop-color="#006840"/>
            <stop offset=".3" stop-color="#007a48"/>
            <stop offset="1" stop-color="#86c440"/>
        </linearGradient>
        <clipPath id="clip-path">
            <path id="Rectangle_1562" fill="#b12727" d="M0 0H35V35H0z" transform="translate(15464 -93)"/>
        </clipPath>
        <clipPath id="clip-path-2">
            <path id="Rectangle_1563" fill="#6a1f1f" d="M0 0H35V35H0z" transform="translate(15473 -80)"/>
        </clipPath>
        <style>
            .cls-9{fill-rule:evenodd;fill:#1d4797}
        </style>
    </defs>
    <g id="Group_5591" transform="translate(-15437 157)">
        <g id="Group_2394" transform="translate(15523 -157.303)">
            <circle id="Ellipse_69" cx="17.5" cy="17.5" r="17.5" fill="#ececec" transform="translate(0 .303)"/>
            <text id="_9_" fill="#191919" font-family="OpenSans-SemiBold, Open Sans" font-size="12px" font-weight="600" letter-spacing="-0.007em" transform="translate(18 22.303)">
                <tspan x="-6.808" y="0">9+</tspan>
            </text>
        </g>
        <g id="Mask_Group_2345" clip-path="url(#clip-path)" transform="translate(-27 -64)">
            <g id="Group_2388" fill-rule="evenodd" transform="translate(15469 -88)">
                <path id="Path_4813" fill="url(#linear-gradient)" d="M279.089 130.666c-1.756.367-2.4 1.185-2.337 2.363.088 1.656 1.858 4.812 2.7 6.219a38.489 38.489 0 0 0 5.171 6.721c1.576 1.6 2.56 1.949 4.245-.416a36.726 36.726 0 0 0 3.9-6.3 28.454 28.454 0 0 0 1.374-3.518 3.116 3.116 0 0 0-1.159-3.846 3.835 3.835 0 0 1 2.086 3.4 12.6 12.6 0 0 1-.617 3.959 45.515 45.515 0 0 1-2.954 7.971 46.141 46.141 0 0 1-3.287 5.791c-2.607 3.691-5.111 2.5-8.045 0a31.15 31.15 0 0 1-5.182-5.779 44.269 44.269 0 0 1-4.271-7.994c-1.384-3.443-.308-5.206 1.4-6.324a18.343 18.343 0 0 1 6.976-2.247z" transform="translate(-270.088 -130.353)"/>
                <path id="Path_4814" fill="url(#linear-gradient-2)" d="M279.358 138.513c2.716-.418 9.775-.869 12.252.451a1.442 1.442 0 0 1 .77 1.716q.372-.69.724-1.432a28.453 28.453 0 0 0 1.374-3.518 3.116 3.116 0 0 0-1.159-3.846h-.007a9.254 9.254 0 0 0-1.709-.665 25.266 25.266 0 0 0-5.263-.82c-.752-.056-1.538-.05-2.335-.047a34.575 34.575 0 0 0-4.589.312c-1.755.367-2.4 1.185-2.336 2.363.076 1.406 1.373 3.906 2.278 5.486z" transform="translate(-270.417 -130.346)"/>
            </g>
        </g>
        <g id="Mask_Group_2346" clip-path="url(#clip-path-2)" transform="translate(7 -77)">
            <g id="Group_2391" transform="translate(15473 -69)">
                <path id="Path_4845" d="M154.548 61.819c.836-.058 1.646-.065 2.44-.183a1.191 1.191 0 0 0 1.042-1.216 1.252 1.252 0 0 0-.921-1.4 12.428 12.428 0 0 0-2.562-.129v2.929zm0 5.606c.957-.057 1.893-.067 2.816-.184a1.415 1.415 0 0 0 1.258-1.284 1.516 1.516 0 0 0-1.109-1.8 11.385 11.385 0 0 0-2.964-.184v3.449zm4.735-4.709c.209.094.482.2.741.337a3.01 3.01 0 0 1 1.615 2.116 3.9 3.9 0 0 1-.206 2.286 2.968 2.968 0 0 1-1.264 1.475 4.423 4.423 0 0 1-2.078.654c-1.332.065-2.666.091-4 .121-.67.015-1.341 0-2.011 0-.352 0-.461-.113-.461-.466V56.974c0-.387.085-.471.477-.471 1.545 0 3.09-.013 4.636 0a5.573 5.573 0 0 1 2.7.634 2.944 2.944 0 0 1 1.519 2.1 3 3 0 0 1-.683 2.68 6.641 6.641 0 0 1-.983.799z" class="cls-9" transform="translate(-126.727 -56.165)"/>
                <path id="Path_4846" d="M76.974 59.512L75.4 64.334h3.119l-1.543-4.822zm.112-3c.408 0 .816-.006 1.224 0a.554.554 0 0 1 .581.4c.786 2.19 1.588 4.375 2.387 6.561l2.1 5.728c.153.421.077.511-.37.511-.767 0-1.535-.006-2.3 0a.568.568 0 0 1-.595-.439c-.27-.8-.547-1.6-.8-2.407-.049-.155-.114-.2-.26-.2-1.389 0-2.779.005-4.168 0-.161 0-.211.071-.255.2-.266.813-.55 1.621-.807 2.436a.522.522 0 0 1-.553.4c-.768.008-1.535.007-2.3 0-.336 0-.417-.118-.3-.43.57-1.532 1.147-3.06 1.718-4.591q.688-1.843 1.369-3.688c.495-1.336.985-2.675 1.482-4.01a.622.622 0 0 1 .72-.482z" class="cls-9" transform="translate(-70.61 -56.171)"/>
                <path id="Path_4847" d="M113.648 62.361a4.112 4.112 0 0 0 2.787 3.919 3.7 3.7 0 0 0 3.792-.852c.231-.2.383-.215.6 0q.656.644 1.3 1.3a.41.41 0 0 1-.014.67 6.887 6.887 0 0 1-6.715 1.6 6.944 6.944 0 0 1-4.763-5.435 6.817 6.817 0 0 1 1.431-5.591 6.471 6.471 0 0 1 3.955-2.394 6.856 6.856 0 0 1 1.39-.166 6.779 6.779 0 0 1 4.321 1.569c.095.08.194.156.291.234.277.221.3.419.032.709-.405.446-.836.869-1.278 1.279a.437.437 0 0 1-.623 0 3.905 3.905 0 0 0-1.962-.928 3.746 3.746 0 0 0-2.766.652 4.156 4.156 0 0 0-1.778 3.434z" class="cls-9" transform="translate(-98.26 -55.409)"/>
                <path id="Path_4848" fill="#22aae2" fill-rule="evenodd" d="M130.908 72.643a2.363 2.363 0 1 1-2.365-2.4 2.325 2.325 0 0 1 2.365 2.4z" transform="translate(-109.106 -65.674)"/>
            </g>
        </g>
    </g>
</svg>
