<svg width="302" height="69" viewBox="0 0 302 69" fill="none" xmlns="http://www.w3.org/2000/svg">
    <path d="M45.204 24.907a27.05 27.05 0 0 0 15.79 5.056V18.626a15.97 15.97 0 0 1-3.316-.347v8.924a27.055 27.055 0 0 1-15.79-5.056v23.137c0 11.574-9.377 20.956-20.944 20.956a20.834 20.834 0 0 1-11.659-3.545A20.874 20.874 0 0 0 24.26 69c11.567 0 20.944-9.382 20.944-20.957V24.907zm4.09-11.438a15.806 15.806 0 0 1-4.09-9.251V2.76H42.06a15.873 15.873 0 0 0 7.233 10.71zM16.602 53.814a9.55 9.55 0 0 1-1.954-5.804c0-5.293 4.289-9.585 9.58-9.585.986 0 1.966.15 2.906.449V27.283a21.104 21.104 0 0 0-3.314-.191v9.022a9.582 9.582 0 0 0-2.908-.45c-5.292 0-9.58 4.292-9.58 9.587a9.585 9.585 0 0 0 5.27 8.563z" fill="#FF004F"/>
    <path d="M41.887 22.147a27.055 27.055 0 0 0 15.79 5.056v-8.924a15.847 15.847 0 0 1-8.383-4.81A15.873 15.873 0 0 1 42.06 2.76h-8.255v45.284c-.018 5.279-4.3 9.553-9.58 9.553a9.564 9.564 0 0 1-7.626-3.782 9.586 9.586 0 0 1-5.27-8.563c0-5.294 4.288-9.586 9.58-9.586 1.014 0 1.99.158 2.907.449v-9.022c-11.363.235-20.502 9.525-20.502 20.951a20.891 20.891 0 0 0 5.97 14.652 20.835 20.835 0 0 0 11.659 3.545c11.567 0 20.943-9.382 20.943-20.956V22.147z" fill="#000"/>
    <path d="M57.678 18.279v-2.413a15.78 15.78 0 0 1-8.384-2.397 15.833 15.833 0 0 0 8.384 4.81zM42.06 2.759a16.16 16.16 0 0 1-.173-1.3V0H30.49v45.284c-.018 5.278-4.3 9.553-9.58 9.553a9.536 9.536 0 0 1-4.31-1.023 9.565 9.565 0 0 0 7.626 3.782c5.28 0 9.562-4.274 9.58-9.553V2.76h8.255zM23.818 27.093v-2.569a21.133 21.133 0 0 0-2.873-.195C9.377 24.328 0 33.711 0 45.284c0 7.255 3.685 13.65 9.285 17.411a20.89 20.89 0 0 1-5.969-14.652c0-11.425 9.139-20.716 20.502-20.95zM201.161 42.184l11.612 15.224h11.702l-14.787-18.36 12.428-16.452h-10.795l-10.16 14.816V22.596h-9.071v34.812h9.071V42.184z" fill="#00F2EA"/>
    <path d="m206.318 40.184 11.612 15.224h11.702l-14.786-18.36 12.427-16.452h-10.795l-10.16 14.816V20.596h-9.071v34.812h9.071V40.184z" fill="#FF004F"/>
    <path d="M74.71 56.459h9.072V42.325h12.7v14.134h9.072V21.646h-9.072v13.09h-12.7v-13.09h-9.071V56.46zM110.979 42.643c0 7.771 6.531 14.77 15.058 14.77 9.072 0 15.195-6.408 15.195-14.906 0-8.408-6.577-14.498-15.013-14.498-8.573 0-15.24 6.272-15.24 14.634zm15.195-6.68c3.946 0 6.667 2.817 6.667 6.407 0 4.363-2.54 7.044-6.713 7.044-3.855 0-6.713-2.908-6.713-6.635 0-3.817 2.676-6.817 6.759-6.817zM144.421 42.643c0 8.953 5.307 14.497 13.063 14.497 5.306 0 8.345-3.408 8.345-3.408v2.727h8.482V28.554h-8.346v2.863c-2.494-2.272-4.626-3.408-8.028-3.408-7.756 0-13.516 6.862-13.516 14.634zm15.194-6.817c3.72 0 6.623 2.818 6.623 6.908 0 4.044-3.13 6.817-6.895 6.817-3.9 0-6.35-3.182-6.35-7.044 0-3.682 2.586-6.681 6.622-6.681zM238.82 56.459V28.554h-8.437V56.46h8.437zm-9.253-34.994c0 2.863 2.222 5.09 4.989 5.09 2.903 0 5.216-2.318 5.216-5.181 0-2.818-2.313-5.045-5.125-5.045s-5.08 2.318-5.08 5.136zM243.374 42.552c0 9.362 5.896 14.588 14.469 14.588 5.851 0 10.568-2.908 13.017-7.271-1.542-.955-6.577-3.863-6.577-3.863-1.451 1.909-3.265 3.863-6.032 3.863-3.175 0-5.806-1.59-6.532-4.908h19.595c.045-.637 0-1 0-1.682 0-9.953-5.67-15.27-13.698-15.27-8.21 0-14.242 6.09-14.242 14.543zm14.151-7.453c2.631 0 4.082 1.272 5.08 3.954h-10.568c1.043-2.591 2.631-3.954 5.488-3.954zM275.829 28.554V44.78c0 7.726 5.125 12.361 13.108 12.361 8.028 0 13.063-4.272 13.063-12.043V28.554h-8.255V44.78c0 2.817-1.678 4.59-4.717 4.59-2.858 0-4.763-1.773-4.763-4.817V28.554h-8.436zM203.775 41.234l11.611 15.224h11.702l-14.786-18.36 12.428-16.452h-10.795l-10.16 14.816V21.646h-9.072v34.812h9.072V41.234zM256.459 22.33l-5.776 4.006h-5.505l11.236-9.48 11.914 9.48h-5.506l-6.363-4.006zM275.955 22.087 262.54 16.22l2.772-4.633 12.178 7.69-1.535 2.809z" fill="#000"/>
</svg>
