<svg xmlns="http://www.w3.org/2000/svg" width="507" height="58" viewBox="0 0 507 58">
    <defs>
        <style>
            .cls-1,.cls-5{fill:#ba2028}.cls-2,.cls-3{fill:#fff}.cls-4,.cls-5{stroke:none}
        </style>
    </defs>
    <g id="Group_5629" transform="translate(-684 -12)">
        <g id="Group_5691">
            <g id="Group_5525" transform="translate(683.988 12)">
                <g id="Group_5457">
                    <path id="Polygon_1" d="M29 0l29 29-29 29L0 29z" class="cls-1" transform="translate(.012)"/>
                </g>
                <path id="Path_8699" d="M.96 0h6.555v-1.665H5.22v-8.985H3.45L.78-8.085l1.14 1.2.855-.81a2.433 2.433 0 0 0 .465-.6h.03s-.015.36-.015.72v5.91H.96z" class="cls-2" transform="translate(25.011 34)"/>
            </g>
            <path id="Rectangle_1532" d="M0 0H110V2H0z" class="cls-1" transform="translate(740.999 40)"/>
            <g id="Group_5526" transform="translate(849.493 12)">
                <g id="Group_5457-2">
                    <g id="Polygon_1-2" class="cls-3">
                        <path d="M29 56.586L1.414 29 29 1.414 56.586 29 29 56.586z" class="cls-4" transform="translate(-.496)"/>
                        <path d="M29 2.828L2.828 29 29 55.172 55.172 29 29 2.828M29 0l29 29-29 29L0 29 29 0z" class="cls-5" transform="translate(-.496)"/>
                    </g>
                </g>
                <path id="Path_8700" d="M.5-1.41C.5-.405.66 0 1.59 0h5.55c.72 0 1.02-.3 1.02-1.02v-1.62H6.39V-2a.3.3 0 0 1-.33.33H2.94c-.285 0-.4-.075-.4-.27-.005-1.93 5.14-2.14 5.14-5.74a3.187 3.187 0 0 0-3.45-3.15c-1.38 0-3.24.645-3.24 2.055v1.05h1.77v-.465c0-.4.555-.84 1.395-.84A1.388 1.388 0 0 1 5.7-7.65C5.7-5.055.5-5.265.5-1.41z" class="cls-1" transform="translate(24.506 34)"/>
            </g>
            <path id="Rectangle_1533" d="M0 0H110V2H0z" class="cls-1" transform="translate(905.999 40)"/>
            <g id="Group_5527" transform="translate(1014.999 12)">
                <g id="Group_5457-3">
                    <path id="Polygon_1-3" d="M29 0l29 29-29 29L0 29z" class="cls-2"/>
                    <g id="Path_8667" class="cls-3">
                        <path d="M29 56.586L1.414 29 29 1.414 56.586 29 29 56.586z" class="cls-4"/>
                        <path d="M29 2.828L2.828 29 29 55.172 55.172 29 29 2.828M29 0l29 29-29 29L0 29 29 0z" class="cls-5"/>
                    </g>
                </g>
                <path id="Path_8703" d="M.39-1.32A5.033 5.033 0 0 0 4.005.18 3.523 3.523 0 0 0 7.8-3.27a3.093 3.093 0 0 0-2.745-3.1L7.5-9.435v-1.215H1.71c-.72 0-.93.315-.93 1.02v1.62h1.77v-.645a.3.3 0 0 1 .33-.33h1.335a7.789 7.789 0 0 0 .945-.045V-9a3.72 3.72 0 0 0-.7.81l-1.8 2.415.39.975h.75c1.14 0 2.01.615 2.01 1.56a1.653 1.653 0 0 1-1.82 1.59 3.826 3.826 0 0 1-2.61-1.14z" class="cls-1" transform="translate(25 34)"/>
            </g>
            <path id="Rectangle_1534" d="M0 0H110V2H0z" class="cls-1" transform="translate(1071.999 40)"/>
            <circle id="Ellipse_210" cx="5" cy="5" r="5" class="cls-1" transform="translate(1181 36)"/>
        </g>
    </g>
</svg>
