<svg xmlns="http://www.w3.org/2000/svg" width="20" height="20" viewBox="0 0 20 20">
    <defs>
        <clipPath id="clip-path">
            <path id="Path_8422" fill="#fff" d="M0 0h20v20H0z" transform="translate(556 367)"/>
        </clipPath>
        <style>
            .cls-3{fill:#cf2831}
        </style>
    </defs>
    <g id="calendar_icon" clip-path="url(#clip-path)" transform="translate(-556 -367)">
        <g id="Group_4273" transform="translate(533.741 367.136)">
            <path id="Path_8414" d="M27.006 12.26a.883.883 0 0 0 .881.868h.013a.871.871 0 0 0 .868-.87v-.023a.881.881 0 0 0-.881-.868h-.015a.882.882 0 0 0-.869.883v.013z" class="cls-3" transform="translate(-.061 -.172)"/>
            <path id="Path_8416" d="M32.371 13.132h.022a.881.881 0 0 0 .88-.837v-.046a.881.881 0 0 0-.837-.879h-.046a.882.882 0 0 0-.88.837v.042a.884.884 0 0 0 .861.883z" class="cls-3" transform="translate(-.135 -.172)"/>
            <path id="Path_8417" d="M36.005 12.264a.881.881 0 0 0 .88.859h.02a.875.875 0 0 0 .862-.873v-.031a.88.88 0 0 0-.879-.856h-.022a.88.88 0 0 0-.859.879v.022z" class="cls-3" transform="translate(-.209 -.172)"/>
            <path id="Path_8418" d="M33.27 15.226a.887.887 0 0 0-.888-.862.884.884 0 0 0-.869.883.88.88 0 0 0 .88.87h.007a.88.88 0 0 0 .87-.88v-.011z" class="cls-3" transform="translate(-.135 -.221)"/>
            <path id="Path_8419" d="M28.77 15.219a.887.887 0 0 0-.887-.858h-.008a.9.9 0 0 0-.868.884v.036a.882.882 0 0 0 .88.844h.044a.874.874 0 0 0 .838-.873v-.033z" class="cls-3" transform="translate(-.061 -.221)"/>
            <path id="Path_8420" d="M36.894 14.376h-.007a.881.881 0 0 0-.88.871v.011a.87.87 0 0 0 .87.866h.015a.874.874 0 0 0 .874-.862v-.006a.882.882 0 0 0-.872-.88z" class="cls-3" transform="translate(-.209 -.222)"/>
            <path id="Path_8421" d="M40.368 12.734a.892.892 0 0 0 .891-.891.784.784 0 0 0-.017-.081h.016v-.794q0-2.775-.008-5.55a2.346 2.346 0 0 0-2.335-2.343h-.605a3.305 3.305 0 0 0-.791-1.6 2.1 2.1 0 0 0-1.5-.607h-.071a2.1 2.1 0 0 0-1.525.57 3.508 3.508 0 0 0-.846 1.621h-2.638a3.509 3.509 0 0 0-.85-1.622 2.09 2.09 0 0 0-1.522-.572h-.03a2.1 2.1 0 0 0-1.519.589 3.431 3.431 0 0 0-.82 1.623h-.602a2.344 2.344 0 0 0-2.33 2.343q-.007 2.774-.007 5.55t.007 5.551v.019a2.328 2.328 0 0 0 2.327 2.312h.014q3.329.006 6.655.006t6.655-.006h.016a2.329 2.329 0 0 0 2.318-2.328v-.01V15.586a.886.886 0 1 0-1.772 0v.68a.892.892 0 0 1-.166.653.916.916 0 0 1-.659.165h-12.8a.911.911 0 0 1-.657-.167.9.9 0 0 1-.168-.654v-6.238h14.43c.008.1.017.194.016.278v1.458h.017a.784.784 0 0 0-.017.081.892.892 0 0 0 .893.892zm-.915-4.515l-.149.02H28.246q-1.462 0-2.921.007h-.009c-.154 0-.221-.028-.237-.046s-.045-.069-.045-.21v-.045c.01-.311.013-.62.013-.93 0-.469-.007-.938-.007-1.406v-.061a.763.763 0 0 1 .083-.346.774.774 0 0 1 1.04-.344.618.618 0 0 1 .089.246 2.343 2.343 0 0 0 2.127 1.941l.064.011h.006l.121.009a.888.888 0 0 0 .879-.769l.009-.131a.9.9 0 0 0-.866-.876h-.059a.6.6 0 0 1-.544-.6v-.077q-.007-.342-.008-.685 0-.326.008-.651V3.227a.581.581 0 0 1 .575-.581h.048a.573.573 0 0 1 .546.57V3.643a1.315 1.315 0 0 0 .256.949 1.264 1.264 0 0 0 .939.257h1.611c.438 0 .875 0 1.314-.009h.036a.382.382 0 0 1 .23.043c.03.022.068.078.089.236v.006a2.333 2.333 0 0 0 2.236 1.928h.085a.886.886 0 0 0 .883-.838v-.042a.883.883 0 0 0-.824-.879.818.818 0 0 1-.517-.209.8.8 0 0 1-.138-.533c0-.231-.007-.461-.007-.691 0-.189 0-.378.007-.567V3.21a.58.58 0 0 1 .578-.561h.054a.6.6 0 0 1 .546.6v.073a6.937 6.937 0 0 0 .051.8.7.7 0 0 0 .437.634 3.449 3.449 0 0 0 1.076.094h.449c.111 0 .221 0 .33.008h.061a.549.549 0 0 1 .524.549v.032c.006.378.007.756.007 1.136V6.9c0 .393 0 .788.008 1.184v.013c.001.113-.02.117-.026.122z" class="cls-3"/>
        </g>
    </g>
</svg>
