<svg width="78" height="78" viewBox="0 0 78 78" fill="none" xmlns="http://www.w3.org/2000/svg">
    <path d="M62.828 0H15.172C7.242 0 .812 6.43.812 14.36v31.256c0 7.93 6.43 14.36 14.36 14.36h6.84c.325 0 .588.263.588.589v15.418c0 1.823 2.23 2.707 3.48 1.379l16.176-17.2a.589.589 0 0 1 .43-.186h20.142c7.931 0 14.36-6.43 14.36-14.36V14.36c0-7.93-6.43-14.36-14.36-14.36z" fill="#EC5569"/>
    <path d="M28.642 54.617c0-.343-.256-.62-.57-.62H21.45c-7.677 0-13.901-6.77-13.901-15.122V5.96c0-1.413.179-2.78.512-4.078C3.73 4.355.813 9.016.813 14.359v31.257c0 7.93 6.429 14.36 14.359 14.36h6.84a.59.59 0 0 1 .588.589v15.418c0 1.823 2.23 2.707 3.48 1.379l2.562-2.725v-20.02z" fill="#E63950"/>
    <path d="M55.135 18.635a9.336 9.336 0 0 0-13.203 0l-2.06 2.06a1.258 1.258 0 0 1-1.778 0l-2.026-2.027a9.336 9.336 0 0 0-13.203 13.203l15.23 15.23a1.258 1.258 0 0 0 1.779 0l15.26-15.263a9.336 9.336 0 0 0 0-13.203z" fill="#EC5569"/>
    <path d="M55.135 18.635a9.336 9.336 0 0 0-13.203 0l-2.06 2.06a1.258 1.258 0 0 1-1.778 0l-2.026-2.027a9.336 9.336 0 0 0-13.203 13.203l15.23 15.23a1.258 1.258 0 0 0 1.779 0l15.26-15.263a9.336 9.336 0 0 0 0-13.203z" fill="#FFF5F5"/>
    <path d="M27.749 31.87a9.336 9.336 0 0 1 4.159-15.61 9.336 9.336 0 0 0-9.043 15.61l15.23 15.231a1.258 1.258 0 0 0 1.779 0l1.552-1.553L27.75 31.871z" fill="#DCE6EB"/>
</svg>
