<svg width="68" height="68" viewBox="0 0 68 68" fill="none" xmlns="http://www.w3.org/2000/svg">
<g filter="url(#filter0_d_1104_4058)">
<circle cx="34" cy="30" r="30" fill="white"/>
</g>
<path d="M54 30C54 41.05 45.05 50 34 50C22.95 50 14 41.05 14 30C14 18.95 22.95 10 34 10C45.05 10 54 18.95 54 30Z" fill="url(#paint0_linear_1104_4058)"/>
<path d="M30.3337 39.1666C29.6837 39.1666 29.8003 38.9166 29.567 38.2999L27.667 32.0333L39.467 24.6666L40.8503 25.0333L39.7003 28.1666L30.3337 39.1666Z" fill="#C8DAEA"/>
<path d="M30.3337 39.1666C30.8337 39.1666 31.0497 38.9333 31.333 38.6666C31.7663 38.25 37.333 32.8333 37.333 32.8333L33.9163 32L30.7497 34L30.333 39L30.3337 39.1666Z" fill="#A9C9DD"/>
<path d="M30.6666 34.0666L38.7332 40.0166C39.6499 40.5166 40.3166 40.2666 40.5499 39.1666L43.8332 23.7C44.1666 22.35 43.3166 21.75 42.4332 22.15L23.1666 29.5833C21.8499 30.1166 21.8666 30.85 22.9332 31.1666L27.8832 32.7166L39.3332 25.5C39.8666 25.1666 40.3666 25.35 39.9666 25.7166L30.6666 34.0666Z" fill="url(#paint1_linear_1104_4058)"/>
<defs>
<filter id="filter0_d_1104_4058" x="0" y="0" width="68" height="68" filterUnits="userSpaceOnUse" color-interpolation-filters="sRGB">
<feFlood flood-opacity="0" result="BackgroundImageFix"/>
<feColorMatrix in="SourceAlpha" type="matrix" values="0 0 0 0 0 0 0 0 0 0 0 0 0 0 0 0 0 0 127 0" result="hardAlpha"/>
<feOffset dy="4"/>
<feGaussianBlur stdDeviation="2"/>
<feComposite in2="hardAlpha" operator="out"/>
<feColorMatrix type="matrix" values="0 0 0 0 0 0 0 0 0 0 0 0 0 0 0 0 0 0 0.12 0"/>
<feBlend mode="normal" in2="BackgroundImageFix" result="effect1_dropShadow_1104_4058"/>
<feBlend mode="normal" in="SourceGraphic" in2="effect1_dropShadow_1104_4058" result="shape"/>
</filter>
<linearGradient id="paint0_linear_1104_4058" x1="39.8617" y1="16.3217" x2="29.8617" y2="39.6547" gradientUnits="userSpaceOnUse">
<stop stop-color="#37AEE2"/>
<stop offset="1" stop-color="#1E96C8"/>
</linearGradient>
<linearGradient id="paint1_linear_1104_4058" x1="35.4984" y1="30.6258" x2="39.6651" y2="37.2925" gradientUnits="userSpaceOnUse">
<stop stop-color="#EFF7FC"/>
<stop offset="1" stop-color="white"/>
</linearGradient>
</defs>
</svg>
