<svg width="14" height="14" viewBox="0 0 14 14" fill="none" xmlns="http://www.w3.org/2000/svg">
    <g clip-path="url(#a)">
        <path d="M7 0c3.869 0 7 3.13 7 7 0 1.228-.32 2.427-.928 3.485l.902 2.8a.547.547 0 0 1-.689.689l-2.8-.902A6.984 6.984 0 0 1 7 14c-3.869 0-7-3.13-7-7 0-3.869 3.13-7 7-7zm0 12.906a5.89 5.89 0 0 0 3.126-.895.547.547 0 0 1 .458-.056l2.022.65-.651-2.021a.547.547 0 0 1 .056-.458A5.89 5.89 0 0 0 12.906 7 5.913 5.913 0 0 0 7 1.094 5.913 5.913 0 0 0 1.094 7 5.913 5.913 0 0 0 7 12.906zM6.316 7a.684.684 0 1 0 1.368 0 .684.684 0 0 0-1.368 0zM3.582 7a.684.684 0 1 0 1.367 0 .684.684 0 0 0-1.367 0zm5.469 0a.684.684 0 1 0 1.367 0 .684.684 0 0 0-1.367 0z" fill="#FB2B54"/>
    </g>
    <defs>
        <clipPath id="a">
            <path fill="#fff" transform="matrix(-1 0 0 1 14 0)" d="M0 0h14v14H0z"/>
        </clipPath>
    </defs>
</svg>
