<svg xmlns="http://www.w3.org/2000/svg" width="40" height="40" viewBox="0 0 40 40">
    <g>
        <g>
            <path d="M31.974 49.871a3.942 3.942 0 0 0-2.858-1.309 4.077 4.077 0 0 0-2.891 1.3l-2.672 2.659c-.22-.118-.44-.228-.651-.338-.3-.152-.592-.3-.837-.447a29.022 29.022 0 0 1-6.958-6.336 17.1 17.1 0 0 1-2.283-3.6c.693-.633 1.336-1.292 1.961-1.925.237-.236.473-.481.71-.718a3.87 3.87 0 0 0 0-5.842l-2.308-2.3c-.262-.262-.533-.532-.786-.8-.507-.523-1.04-1.064-1.589-1.57a4 4 0 0 0-2.832-1.239 4.144 4.144 0 0 0-2.875 1.241l-.017.017-2.875 2.9a6.173 6.173 0 0 0-1.834 3.921 14.78 14.78 0 0 0 1.082 6.264 36.339 36.339 0 0 0 6.468 10.773A39.778 39.778 0 0 0 21.177 62.88a20.664 20.664 0 0 0 7.44 2.195c.178.008.364.017.533.017A6.375 6.375 0 0 0 34.028 63c.008-.017.025-.025.034-.042a19.2 19.2 0 0 1 1.48-1.528c.364-.346.736-.709 1.1-1.089a4.209 4.209 0 0 0 1.277-2.921 4.055 4.055 0 0 0-1.3-2.9zM35 58.761c-.008 0-.008.008 0 0-.33.355-.668.675-1.031 1.03a22.213 22.213 0 0 0-1.632 1.688 4.079 4.079 0 0 1-3.179 1.342c-.127 0-.262 0-.389-.008a18.357 18.357 0 0 1-6.595-1.975A37.548 37.548 0 0 1 9.7 51.078a34.264 34.264 0 0 1-6.091-10.122 12.038 12.038 0 0 1-.947-5.285 3.873 3.873 0 0 1 1.167-2.507l2.883-2.879a1.923 1.923 0 0 1 1.288-.6 1.809 1.809 0 0 1 1.234.591l.025.025c.516.481 1.006.979 1.522 1.511.262.27.533.54.8.819l2.308 2.3a1.61 1.61 0 0 1 0 2.617c-.245.245-.482.49-.727.726-.71.726-1.387 1.4-2.122 2.06-.017.017-.034.025-.042.042a1.72 1.72 0 0 0-.44 1.916l.025.076a18.5 18.5 0 0 0 2.731 4.449l.008.008a31.015 31.015 0 0 0 7.508 6.821 11.549 11.549 0 0 0 1.04.566c.3.152.592.3.837.447.034.017.068.042.1.059a1.835 1.835 0 0 0 .837.211 1.809 1.809 0 0 0 1.285-.583l2.891-2.887a1.914 1.914 0 0 1 1.277-.633 1.723 1.723 0 0 1 1.217.616l.017.017 4.658 4.652a1.668 1.668 0 0 1 .011 2.65z" transform="translate(-.344) translate(.344) translate(-.344 -25.092)"/>
            <path d="M245.883 88.186a10.873 10.873 0 0 1 8.86 8.848 1.134 1.134 0 0 0 1.124.946 1.511 1.511 0 0 0 .194-.017 1.141 1.141 0 0 0 .939-1.318 13.147 13.147 0 0 0-10.72-10.7 1.147 1.147 0 0 0-1.319.929 1.128 1.128 0 0 0 .922 1.312z" transform="translate(-.344) translate(.344) translate(-224.264 -78.671)"/>
            <path d="M267.754 17.645A21.649 21.649 0 0 0 250.1.018a1.138 1.138 0 1 0-.372 2.246 19.337 19.337 0 0 1 15.776 15.753 1.134 1.134 0 0 0 1.124.946 1.511 1.511 0 0 0 .194-.017 1.119 1.119 0 0 0 .932-1.301z" transform="translate(-.344) translate(.344) translate(-227.772)"/>
        </g>
    </g>
</svg>
