<svg xmlns="http://www.w3.org/2000/svg" width="40" height="40" viewBox="0 0 40 40">
    <path d="M37.647 20A17.647 17.647 0 1 1 20 2.353a17.907 17.907 0 0 1 11.7 3.991l-3.7.738.461 2.307 6.828-1.366V1.176h-2.348v3.145A20.3 20.3 0 0 0 20 0 20 20 0 0 0 5.858 34.142 20 20 0 0 0 40 20z"/>
    <path d="M129.412 159.412V150H120v2.353h7.059v4.706H120v9.412h9.412v-2.353h-7.059v-4.706z" transform="translate(-110.588 -138.235)"/>
    <path d="M279.412 166.471V150h-2.353v7.059h-4.706V150H270v9.412h7.059v7.059z" transform="translate(-248.824 -138.235)"/>
</svg>
