<svg width="13" height="14" viewBox="0 0 13 14" fill="none" xmlns="http://www.w3.org/2000/svg">
    <path d="M11.466 5.59 2.023.216C1.02-.356 0 .269 0 1.394v11.219C0 13.566.62 14 1.197 14c.271 0 .548-.086.823-.253l9.485-5.806c.476-.293.744-.726.736-1.19-.008-.463-.29-.887-.775-1.161zm-.597 1.314L1.384 12.71a.606.606 0 0 1-.148.068.632.632 0 0 1-.019-.164V1.394c0-.115.021-.174.021-.188a.476.476 0 0 1 .185.068l9.44 5.374c.117.067.152.124.163.112-.006.016-.046.075-.157.144z" fill="#FB2B54"/>
</svg>
