<svg xmlns="http://www.w3.org/2000/svg" width="24" height="23.998" viewBox="0 0 24 23.998">
    <defs>
        <style>
            .cls-1{fill:#ba2028}
        </style>
    </defs>
    <g id="icon_phone_top_menu" transform="translate(.003)">
        <g id="_003---Call" transform="translate(-.003)">
            <path id="Shape" d="M10.935 14.1a9.686 9.686 0 0 1-2.924-5.5.823.823 0 0 1 .236-.689L10.1 6.056a.828.828 0 0 0 .117-1.024L7.266.449a.828.828 0 0 0-1.072-.3L1.456 2.378A.823.823 0 0 0 1 3.2a22.9 22.9 0 0 0 6.975 13.855 22.9 22.9 0 0 0 13.854 6.974.823.823 0 0 0 .822-.455l2.231-4.738a.828.828 0 0 0-.3-1.07L20 14.815a.828.828 0 0 0-1.024.116l-1.853 1.854a.823.823 0 0 1-.689.236 9.686 9.686 0 0 1-5.5-2.925z" class="cls-1" transform="translate(-.997 -.035)"/>
            <path id="Shape-2" d="M35.862 18.689a.828.828 0 0 1-.828-.828 6.214 6.214 0 0 0-6.207-6.207.828.828 0 0 1 0-1.655 7.87 7.87 0 0 1 7.862 7.862.828.828 0 0 1-.827.828z" class="cls-1" transform="translate(-16.827 -5.862)"/>
            <path id="Shape-3" d="M40 12.827a.828.828 0 0 1-.828-.827A10.356 10.356 0 0 0 28.828 1.655a.828.828 0 0 1 0-1.655 12.013 12.013 0 0 1 12 12 .828.828 0 0 1-.828.828z" class="cls-1" transform="translate(-16.827)"/>
        </g>
    </g>
</svg>
