<svg width="321" height="78" viewBox="0 0 321 78" fill="none" xmlns="http://www.w3.org/2000/svg">
    <path d="M120.742 31.47a.285.285 0 0 0 .325-.324v-8.03l-.108-2.856a2.617 2.617 0 0 0-1.994-2.695 7.27 7.27 0 0 0-1.832-.162c-.539 0-.809-.162-.809-.431 0-.27.325-.432.977-.432l7.869.162c.249-.047.502-.065.754-.054l4.043-.108c.647 0 .977.162.977.432s-.269.431-.863.431a7.443 7.443 0 0 0-1.348.162c-1.078.162-1.672 1.078-1.725 2.695l-.107 2.857v18.377c0 1.078 0 1.993.055 2.75.054 1.885.107 3.233.162 4.149.162 1.562.754 2.425 1.832 2.538.786.102 1.578.157 2.371.162.484 0 .754.108.754.377 0 .324-.324.432-.916.432l-5.664-.108a.918.918 0 0 1-.377-.054l-7.126.146c-.646 0-.976-.162-.976-.432s.269-.377.754-.377a8.78 8.78 0 0 0 1.672-.161c.701-.108 1.133-.977 1.347-2.588.13-1.363.184-2.732.163-4.1.054-.754.054-1.672.054-2.75v-7.15c0-.163-.107-.27-.324-.27h-17.843a.25.25 0 0 0-.195.074.25.25 0 0 0-.074.195v7.169c0 1.078 0 1.993.055 2.75.054 1.885.107 3.233.162 4.148.162 1.563.754 2.426 1.832 2.539.786.102 1.578.156 2.371.162.484 0 .754.108.754.377 0 .324-.324.431-.916.431l-5.664-.107a.917.917 0 0 1-.377-.054l-7.159.144c-.646 0-.916-.162-.916-.432s.27-.377.754-.377c.561 0 1.121-.054 1.672-.161.701-.108 1.133-.977 1.348-2.588.13-1.363.183-2.732.162-4.1.055-.754.055-1.672.055-2.75V23.117l-.108-2.857a2.614 2.614 0 0 0-1.994-2.695 7.27 7.27 0 0 0-1.832-.162c-.54 0-.809-.162-.809-.431 0-.27.324-.432.977-.432l7.869.162c.249-.047.502-.065.754-.054l4.043-.108c.647 0 .977.162.977.432s-.27.431-.863.431a7.434 7.434 0 0 0-1.348.162c-1.078.162-1.672 1.078-1.725 2.695l-.107 2.857v8.03c0 .214.107.324.269.324h17.936zM142.296 51.025a14.498 14.498 0 0 1-5.229-3.71 15.185 15.185 0 0 1-3.019-5.013 15.515 15.515 0 0 1-.916-5.39c.007-1.795.317-3.578.916-5.271a15.074 15.074 0 0 1 3.019-5.066 14.22 14.22 0 0 1 5.391-3.71 20.364 20.364 0 0 1 7.924-1.51 17.778 17.778 0 0 1 12.292 4.043 13.81 13.81 0 0 1 4.527 10.832 15.462 15.462 0 0 1-4.637 11.533 17.428 17.428 0 0 1-12.613 4.742 19.198 19.198 0 0 1-7.655-1.48zm12.075-1.078a8.584 8.584 0 0 0 3.072-1.724 9.271 9.271 0 0 0 2.588-3.827 18.953 18.953 0 0 0 1.078-6.737 15.146 15.146 0 0 0-3.449-10.402 10.831 10.831 0 0 0-8.463-3.773 12.503 12.503 0 0 0-3.504.484 8.718 8.718 0 0 0-3.18 1.942 10.225 10.225 0 0 0-2.371 3.71 17.22 17.22 0 0 0-.916 6.09 15.94 15.94 0 0 0 3.34 10.42 10.977 10.977 0 0 0 9.109 4.256 11.271 11.271 0 0 0 2.696-.439zM176.432 41.972a.409.409 0 0 0-.377.27l-2.211 5.335a5.672 5.672 0 0 0-.586 2.425c0 .754.539 1.132 1.672 1.132h.586c.432 0 .586.163.586.432 0 .27-.215.431-.647.431h-1.132l-2.372-.162-2.802.055c-1.133.055-2.149.108-3.02.108-.485 0-.754-.163-.754-.432a.39.39 0 0 1 .432-.431l1.24-.055c1.348-.215 2.48-1.402 3.397-3.503l10.781-25.007c.432-1.078.863-1.617 1.24-1.617s.809.432 1.186 1.293l7.869 18.432c1.133 2.694 2.049 4.743 2.641 6.09a12.91 12.91 0 0 0 2.049 3.396 2.58 2.58 0 0 0 1.455.863 9.59 9.59 0 0 0 1.563.162c.377 0 .539.162.539.432 0 .161-.108.27-.324.324-.48.086-.968.122-1.456.107l-8.203-.107-.215-.055a.8.8 0 0 1-.377-.055c-.215-.054-.324-.107-.324-.214 0-.27.162-.377.539-.432a.622.622 0 0 0 .377-.27.58.58 0 0 0 0-.585l-3.18-7.977a.422.422 0 0 0-.431-.27h-9.766l.025-.115zm8.84-2.21c.215 0 .27-.108.215-.27l-3.934-10.24c0-.054 0-.054-.054-.107a.664.664 0 0 0-.108-.162c-.053 0-.107.054-.162.162-.055.055-.055.055-.055.108l-4.043 10.185c-.108.216-.054.324.162.324h7.979zM220.924 32.224h.215l7.924-8.246c.916-.976 1.562-1.672 1.887-2.048l.916-1.078c.324-.377.539-.701.754-.977.346-.415.57-.919.646-1.454 0-.54-.215-.863-.646-.916-.432-.108-.586-.27-.586-.485 0-.269.269-.431.754-.431l2.263.055 1.348.107h2.426l2.965-.162h1.24c.539 0 .809.162.809.431 0 .27-.215.432-.701.432a8.15 8.15 0 0 0-2.696.484 15.944 15.944 0 0 0-5.066 3.503c-.864.864-2.539 2.48-5.014 4.958-1.186 1.133-2.211 2.148-3.02 3.02a121.734 121.734 0 0 1-2.049 2.1c.432.54 1.241 1.51 2.426 2.857l3.828 4.204c1.403 1.563 2.696 2.91 3.881 4.204l4.044 4.043a27.432 27.432 0 0 0 1.617 1.402 12.586 12.586 0 0 0 3.504 2.148c.573.238 1.17.419 1.779.538.368.107.748.162 1.131.163.432 0 .586.107.586.377 0 .161-.107.269-.27.376-.297.084-.606.12-.916.108h-3.988a41.21 41.21 0 0 1-3.235-.108 7.08 7.08 0 0 1-3.072-.916 17.9 17.9 0 0 1-2.695-2.1c-.485-.432-1.348-1.348-2.696-2.75a323.02 323.02 0 0 0-3.881-4.366c-3.18-3.71-5.066-5.981-5.713-6.844l-.484-.701h-.215v10.077c.055 1.887.055 3.234.162 4.15.108 1.562.647 2.37 1.672 2.538.751.1 1.507.155 2.264.163.431 0 .586.107.586.376 0 .325-.325.432-.916.432l-7.872-.162c-.23.047-.466.065-.701.055l-4.043.107c-.647 0-.916-.162-.916-.432s.269-.377.754-.377c.561 0 1.121-.054 1.672-.162.701-.107 1.133-.976 1.348-2.587.129-1.363.183-2.732.162-4.1.054-.754.054-1.672.054-2.75V23.117l-.107-2.857a2.617 2.617 0 0 0-1.994-2.695 7.273 7.273 0 0 0-1.832-.162c-.539 0-.809-.162-.809-.431 0-.27.324-.432 1.023-.432l7.655.162c.248-.047.501-.065.754-.054l3.774-.108c.646 0 .976.162.976.432s-.215.431-.646.431a6.949 6.949 0 0 0-1.293.162c-1.079.162-1.672 1.078-1.725 2.695l-.107 2.857v9.107h.105z" fill="#fff"/>
    <path d="M250.091 27.419c0-1.024 0-1.832-.055-2.425a2.114 2.114 0 0 0-1.402-2.102 5.86 5.86 0 0 0-1.51-.162c-.432 0-.646-.162-.646-.431 0-.216.325-.324.976-.324l6.577.107 4.257-.107c.54 0 .864.107.864.324 0 .324-.215.431-.647.431-.4.008-.798.063-1.185.162-.916.163-1.455.864-1.563 2.148l-.107 2.426v15.736c0 .977 0 1.725.054 2.371a27.818 27.818 0 0 0 .163 3.558 1.972 1.972 0 0 0 1.617 1.886c.694.12 1.397.175 2.101.162.432 0 .647.162.647.432s-.27.431-.809.431l-7.654-.162c-.231.05-.466.068-.701.055l-3.712.107c-.539 0-.808-.162-.808-.431 0-.27.215-.432.646-.432.491.012.98-.042 1.455-.162.702-.162 1.079-.808 1.241-1.94.13-1.164.184-2.334.162-3.504v-18.16l.039.006zM266.904 27.481c0-1.023 0-1.832-.055-2.425a2.184 2.184 0 0 0-1.779-2.148l-.701-.108a5.536 5.536 0 0 0-.916-.054c-.484 0-.701-.162-.701-.432s.324-.377.916-.377l4.797.108h12.344c.181.008.363-.01.539-.055l1.186-.162a2.14 2.14 0 0 0 .324-.107c.105-.045.213-.08.324-.108.162 0 .27.108.27.377l-.108.484c0 .108 0 .163-.054.215a9.399 9.399 0 0 0-.163 1.887l-.162 2.048c.017.197-.002.395-.054.586l-.055.162c-.055.107-.055.162-.107.162a.394.394 0 0 1-.325.27c-.216 0-.324-.162-.324-.485a2.6 2.6 0 0 0-.055-.646 8.347 8.347 0 0 0-.214-.809 2.15 2.15 0 0 0-.702-.916 4.298 4.298 0 0 0-1.994-.484 5.627 5.627 0 0 0-1.185-.054l-1.995-.108-3.289-.055c-.162 0-.269.108-.269.377v9.809c0 .27.107.431.269.431h3.612c.916 0 1.617 0 2.211-.054.467.02.936.002 1.4-.055 1.024-.108 1.672-.27 1.942-.586l.376-.377a.496.496 0 0 1 .27-.162c.215 0 .324.162.324.432l-.484 4.419-.055 1.132c.011.197-.008.395-.055.586-.107.215-.214.324-.376.324-.27 0-.377-.107-.377-.324l-.163-1.455a2.283 2.283 0 0 0-2.263-1.562 5.95 5.95 0 0 0-1.186-.055l-1.939-.107-3.342-.055c-.162 0-.215.162-.215.432v9.049a2.902 2.902 0 0 0 1.24 2.695 9.452 9.452 0 0 0 4.313.646 19.022 19.022 0 0 0 1.941-.108 5.758 5.758 0 0 0 1.94-.431 3.572 3.572 0 0 0 1.779-2.964c.108-.377.27-.586.485-.586.161 0 .269.108.324.324.052.19.071.389.054.586a15.077 15.077 0 0 1-.539 4.366c-.215.701-.916 1.023-2.211 1.023-3.019 0-5.553-.054-7.547-.162l-5.553.055-1.51.054c-1.293.055-2.263.108-2.857.108-.539 0-.754-.162-.754-.432s.215-.431.646-.431c.491.012.98-.043 1.456-.162.646-.162 1.078-.863 1.185-2.101a27.33 27.33 0 0 0 .162-3.504l.004-17.94zm7.87-15.737.916.701c.551.461 1.127.893 1.724 1.293l2.911 2.21c.431.323.646.539.646.647a.55.55 0 0 1-.269.431l-1.348 1.348a.94.94 0 0 1-.586.324c-.108 0-.324-.162-.701-.539-.377-.377-1.133-1.023-2.211-1.941-.977-.754-1.618-1.293-1.887-1.51a1.136 1.136 0 0 0-.586-.269c-.247.017-.487.09-.701.215-.701.431-1.51.916-2.426 1.51-1.024.753-1.887 1.347-2.539 1.94-.432.377-.701.586-.916.586a.392.392 0 0 1-.432-.431c0-.163.162-.377.432-.701l3.019-2.91a54.058 54.058 0 0 1 1.942-1.832c.646-.585 1.023-.976 1.185-1.078.432-.376.754-.585.977-.585.158.107.42.267.852.591h-.002zm6.791.586a.772.772 0 0 1-.324.108 7.953 7.953 0 0 1-1.672-.54l-3.02-1.292a412.156 412.156 0 0 1-4.797-2.048 5.578 5.578 0 0 1-1.133-.586c-.269-.215-.431-.432-.431-.586 0-.154.214-.324.585-.432a30.391 30.391 0 0 0 3.126-1.185 3.03 3.03 0 0 1 .916-.324c.107 0 .214.107.324.27l.432.753a27.52 27.52 0 0 0 1.941 1.994 25.99 25.99 0 0 0 3.234 2.75l.377.214c0 .055.055.055.163.107.054.055.107.108.162.108.215.162.324.324.324.431a.536.536 0 0 1-.205.266l-.002-.008zM291.055 33.402c0-5.228 0-8.03-.054-8.407a2.186 2.186 0 0 0-1.78-2.148l-.701-.107a4.945 4.945 0 0 0-.916-.055c-.484 0-.701-.162-.701-.431 0-.27.324-.377.916-.377l7.17.107 4.258-.107c.586 0 .916.107.916.377s-.215.431-.647.431a6.04 6.04 0 0 0-1.185.162c-.916.162-1.402.863-1.51 2.148l-.107 2.425v11.533a20.181 20.181 0 0 0 .808 6.413 7.213 7.213 0 0 0 5.067 4.58c.405.108.821.162 1.24.163.193.042.389.06.586.055h.586c.956 0 1.906-.144 2.819-.426a6.032 6.032 0 0 0 2.695-1.672 7.227 7.227 0 0 0 2.049-4.1c.162-.754.217-1.617.324-2.64.053-.701.053-1.672.053-2.965v-5.014c0-2.695 0-4.687-.053-5.981l-.055-2.425a2.187 2.187 0 0 0-1.724-2.148l-.701-.108a4.08 4.08 0 0 0-.809-.054c-.432 0-.701-.163-.701-.432 0-.27.269-.377.808-.377l4.475.108 5.274-.108c.539 0 .863.108.863.377 0 .27-.215.432-.701.432a7.02 7.02 0 0 0-1.24.162c-.917.162-1.403.863-1.51 2.148l-.055 2.425c-.055 1.293-.055 3.288-.055 5.981v4.257a30.065 30.065 0 0 1-.162 3.34 18.211 18.211 0 0 1-.539 3.29 10.322 10.322 0 0 1-3.287 5.389 12.218 12.218 0 0 1-4.475 2.318c-1.39.362-2.821.543-4.258.538h-.916c-.36.01-.721-.008-1.078-.054a16.504 16.504 0 0 1-2.426-.324 10.318 10.318 0 0 1-5.014-2.318 9.907 9.907 0 0 1-2.695-3.773 18.75 18.75 0 0 1-1.078-6.737v-5.871h.226z" fill="#fff"/>
    <path d="m58.113 65.631.055-.43 9.866-.054a38.785 38.785 0 0 0 7.654-12.642l-13.153-.27v-.538l13.53-.27A39.515 39.515 0 0 0 78.114 39a38.46 38.46 0 0 0-5.176-19.314l-26.84-.537-.056-.484 25.978-.43A38.578 38.578 0 0 0 59.73 6.023l-20.86-.539v-.586l18.976-.054a39.176 39.176 0 0 0-47.44 7.527l21.454.27v.586l-22.586.44a38.982 38.982 0 0 0-9.272 25.28c-.008.503.01 1.006.054 1.506l8.626.055v.539H.056a38.837 38.837 0 0 0 7.759 21.357l12.451-.055v.586H8.25a39.062 39.062 0 0 0 29.015 15.023 39.074 39.074 0 0 0 30.282-12.272l-9.434-.055z" fill="#BA2028"/>
    <path d="M51.86 32.88c0 3.281-2.589 6.835-8.841 6.722V9.643h-8.201v13.98c0 3.226-2.588 6.721-8.895 6.721V17.708h-8.294v41.397c2.54 0 8.301-2.474 8.301-7.904V40.775a6.591 6.591 0 0 1 5.93-6.344h2.858V68.25a8.193 8.193 0 0 0 8.248-6.936l.162-11.615a6.356 6.356 0 0 1 5.557-6.02h3.18v17.205h8.57l-.162-9.892c0-2.205-3.935-7.528-8.408-7.528v-.27s7.813-.429 8.248-7.58V19H51.81s.108 10.377.055 13.864M96.078 72.94a.893.893 0 0 1-.647-.27.81.81 0 0 1-.215-.585v-8.137a.78.78 0 0 1 .27-.586.91.91 0 0 1 1.293 0 .81.81 0 0 1 .215.586v8.137a.738.738 0 0 1-.215.585.77.77 0 0 1-.701.27zm6.092-9.916a.67.67 0 0 1 .539.27.783.783 0 0 1 .215.538.753.753 0 0 1-.27.54l-5.875 5.662-.055-1.994 4.745-4.686c.182-.196.432-.314.699-.33h.002zm-.162 9.916a.769.769 0 0 1-.647-.324l-3.234-4.257 1.293-1.293 3.342 4.419c.125.171.199.374.214.586a.897.897 0 0 1-.269.646c-.2.153-.448.232-.699.223zM107.022 63.131a.927.927 0 0 1 .863.863v8.137a.779.779 0 0 1-.27.586.864.864 0 0 1-.586.27.892.892 0 0 1-.646-.27.809.809 0 0 1-.215-.586v-8.137a.794.794 0 0 1 .071-.322.791.791 0 0 1 .199-.263c.097-.223.306-.278.584-.278zm-.055 4.101h6.25v1.617h-6.25v-1.617zm6.307-4.1a.898.898 0 0 1 .646.269.808.808 0 0 1 .215.586v8.137a.79.79 0 0 1-.269.586.894.894 0 0 1-.647.269.93.93 0 0 1-.863-.863v-8.137a.778.778 0 0 1 .269-.586.785.785 0 0 1 .649-.262zM126.966 68.035a5.064 5.064 0 0 1-.377 1.993 4.986 4.986 0 0 1-.977 1.617 4.307 4.307 0 0 1-1.51 1.078 4.62 4.62 0 0 1-1.941.377 4.218 4.218 0 0 1-1.887-.377 5.13 5.13 0 0 1-1.51-1.078 4.986 4.986 0 0 1-.977-1.617 5.71 5.71 0 0 1-.376-1.993 5.045 5.045 0 0 1 .376-1.994c.22-.596.551-1.145.977-1.617a4.298 4.298 0 0 1 1.51-1.078 4.544 4.544 0 0 1 1.887-.377 4.62 4.62 0 0 1 1.941.377c.565.265 1.077.63 1.51 1.078.426.472.757 1.02.977 1.617.259.632.387 1.31.377 1.994zm-1.833 0a3.665 3.665 0 0 0-.377-1.725 3.82 3.82 0 0 0-1.023-1.24 2.475 2.475 0 0 0-1.51-.431 2.76 2.76 0 0 0-1.51.431c-.437.301-.789.71-1.023 1.186a3.542 3.542 0 0 0-.377 1.724 3.677 3.677 0 0 0 .377 1.724c.249.481.598.904 1.023 1.24.443.304.973.456 1.51.432a2.76 2.76 0 0 0 1.51-.432 2.61 2.61 0 0 0 1.023-1.24c.27-.514.4-1.09.377-1.67zM133.812 65.342l-3.02 7.168a.844.844 0 0 1-.324.432.717.717 0 0 1-.432.162.569.569 0 0 1-.539-.215.91.91 0 0 1-.162-.539.485.485 0 0 1 .055-.27l3.504-8.406a1.29 1.29 0 0 1 .324-.431.517.517 0 0 1 .484-.108c.174.005.343.06.485.162a.67.67 0 0 1 .324.432l3.449 8.246a.693.693 0 0 1 .055.324.779.779 0 0 1-.27.586.694.694 0 0 1-.539.215.612.612 0 0 1-.431-.162 1.293 1.293 0 0 1-.325-.432l-3.019-7.059.381-.105zm-2.588 5.39.753-1.618h3.774l.27 1.617h-4.797zm1.078-10.832c.149-.11.312-.201.484-.27.208-.07.427-.107.647-.107.32-.026.64.05.916.214a.758.758 0 0 1 .431.485c.057.175.093.355.108.539a.809.809 0 0 1-.055.377c-.063.13-.134.256-.215.376-.107.108-.162.215-.215.27a.408.408 0 0 0-.107.215.294.294 0 0 1-.043.158.294.294 0 0 1-.119.111.802.802 0 0 1-.377.055.49.49 0 0 1-.27-.055c-.107-.054-.107-.107-.107-.27a.485.485 0 0 1 .055-.269c.054-.107.107-.162.162-.27.054-.107.162-.214.215-.323a.904.904 0 0 0 .107-.27.301.301 0 0 0-.042-.158.303.303 0 0 0-.12-.111.686.686 0 0 0-.649-.053c-.107.055-.162.107-.269.162a.405.405 0 0 1-.27.055.462.462 0 0 1-.324-.162.354.354 0 0 1-.107-.377c.002-.162.109-.217.164-.324v.002zM148.365 63.131a.626.626 0 0 1 .539.215.688.688 0 0 1 .215.54v8.2a.779.779 0 0 1-.27.586.865.865 0 0 1-.586.27.92.92 0 0 1-.377-.055 1.181 1.181 0 0 1-.269-.162l-5.553-7.006.377-.215v6.682a.63.63 0 0 1-.215.539.977.977 0 0 1-.586.215.624.624 0 0 1-.539-.215.954.954 0 0 1-.215-.539v-8.201a.779.779 0 0 1 .27-.586.865.865 0 0 1 .586-.27 1.34 1.34 0 0 1 .431.055.487.487 0 0 1 .324.215l5.337 6.844-.215.162v-6.52a.619.619 0 0 1 .215-.539.956.956 0 0 1 .531-.215zM153.81 63.131a.93.93 0 0 1 .863.863v8.137a.778.778 0 0 1-.269.586.864.864 0 0 1-.586.27.895.895 0 0 1-.647-.27.801.801 0 0 1-.214-.586v-8.137a.778.778 0 0 1 .269-.585c.098-.223.307-.278.584-.278zm-.055 4.101h6.251v1.617h-6.251v-1.617zm6.307-4.1a.891.891 0 0 1 .647.269.808.808 0 0 1 .215.586v8.137a.779.779 0 0 1-.27.585.884.884 0 0 1-.646.27.93.93 0 0 1-.864-.863v-8.137a.779.779 0 0 1 .27-.586.722.722 0 0 1 .648-.262zM171.223 72.94a.895.895 0 0 1-.647-.27.802.802 0 0 1-.214-.586v-8.136a.778.778 0 0 1 .269-.586.916.916 0 0 1 1.293 0 .808.808 0 0 1 .215.586v8.137a.742.742 0 0 1-.215.585.892.892 0 0 1-.701.27zm6.037-9.916a.666.666 0 0 1 .539.27c.117.158.191.343.215.538a.737.737 0 0 1-.269.54l-5.876 5.662-.054-1.994 4.744-4.686c.189-.187.437-.304.701-.33zm-.162 9.916a.769.769 0 0 1-.646-.324l-3.235-4.257 1.293-1.293 3.342 4.419c.125.171.2.374.215.586a.88.88 0 0 1-.27.646c-.2.153-.447.232-.699.223zM182.112 63.131a.93.93 0 0 1 .863.863v8.137a.778.778 0 0 1-.269.586.864.864 0 0 1-.586.27.895.895 0 0 1-.647-.27.801.801 0 0 1-.214-.586v-8.137a.778.778 0 0 1 .269-.585.687.687 0 0 1 .584-.278zm0 4.101h6.25v1.617h-6.25v-1.617zm6.25-4.1a.893.893 0 0 1 .647.269.809.809 0 0 1 .215.586v8.137a.779.779 0 0 1-.27.585.884.884 0 0 1-.646.27.93.93 0 0 1-.864-.863v-8.137a.779.779 0 0 1 .27-.586.857.857 0 0 1 .65-.262h-.002zM196.665 65.34l-3.019 7.168a.84.84 0 0 1-.325.432.714.714 0 0 1-.431.162.568.568 0 0 1-.539-.215.903.903 0 0 1-.162-.539.485.485 0 0 1 .054-.27l3.504-8.406c.077-.165.187-.312.324-.431a.522.522 0 0 1 .485-.108c.174.005.343.061.484.162a.674.674 0 0 1 .325.432l3.449 8.246a.693.693 0 0 1 .055.324.78.78 0 0 1-.27.586.692.692 0 0 1-.539.215.613.613 0 0 1-.432-.162 1.303 1.303 0 0 1-.324-.432l-3.02-7.059.381-.105zm-2.64 5.39.754-1.618h3.773l.27 1.617h-4.797zm2.48-8.462a2.627 2.627 0 0 1-1.348-.324c-.38-.23-.682-.57-.863-.976a.48.48 0 0 1 0-.54.437.437 0 0 1 .432-.214c.167-.002.333.034.484.107l.377.377a.978.978 0 0 0 .377.27c.187.07.386.107.586.107a1.155 1.155 0 0 0 .977-.377c.112-.138.238-.265.377-.377.107-.107.269-.107.484-.107a.488.488 0 0 1 .512.501.493.493 0 0 1-.08.253c-.164.417-.47.762-.864.976-.45.226-.949.336-1.453.322l.002.002zm0-2.318a.614.614 0 0 1-.432-.162.496.496 0 0 1-.107-.591.727.727 0 0 0 .162-.215l1.186-1.078c.095-.09.204-.163.324-.215a.779.779 0 0 1 .377-.107c.174.004.343.06.484.162a.561.561 0 0 1 .27.484c-.01.15-.047.295-.108.432a.57.57 0 0 1-.376.324l-1.401.754a.197.197 0 0 1-.162.054c-.057-.002-.164.158-.219.158h.002zM210.519 63.561a.714.714 0 0 1 .432.586.703.703 0 0 1-.215.7.566.566 0 0 1-.484.27 1.158 1.158 0 0 1-.586-.107 3.502 3.502 0 0 0-.702-.215 3.54 3.54 0 0 0-2.101.107 2.68 2.68 0 0 0-1.024.701 3.327 3.327 0 0 0-.646 1.024c-.159.43-.232.888-.215 1.347a4.205 4.205 0 0 0 .269 1.51c.15.407.389.776.702 1.077a3.31 3.31 0 0 0 1.023.647c.412.158.852.231 1.293.215.253.008.505-.01.754-.055.266-.041.522-.133.754-.27.183-.086.385-.123.586-.107.191.022.365.12.484.27a.902.902 0 0 1 .215.7.745.745 0 0 1-.431.54c-.27.107-.485.214-.754.324-.24.1-.495.154-.754.162a4.088 4.088 0 0 1-.809.054 5.859 5.859 0 0 1-1.941-.324 4.977 4.977 0 0 1-1.618-.976 4.658 4.658 0 0 1-1.132-1.562 5.553 5.553 0 0 1-.432-2.21 4.87 4.87 0 0 1 .377-1.994 4.506 4.506 0 0 1 1.078-1.563 4.158 4.158 0 0 1 1.617-1.023 4.963 4.963 0 0 1 2.049-.377c.401-.002.8.052 1.186.162.353.096.696.226 1.025.387zM227.231 63.131a.626.626 0 0 1 .539.215.961.961 0 0 1 .215.54v8.2a.779.779 0 0 1-.27.586.865.865 0 0 1-.586.27.92.92 0 0 1-.377-.055 1.16 1.16 0 0 1-.269-.162l-5.553-7.006.377-.215v6.682a.63.63 0 0 1-.215.539.738.738 0 0 1-.586.215.624.624 0 0 1-.539-.215.954.954 0 0 1-.215-.539v-8.201a.79.79 0 0 1 .269-.586.869.869 0 0 1 .586-.27c.146-.005.292.014.432.055a.496.496 0 0 1 .324.215l5.336 6.844-.214.162v-6.52a.627.627 0 0 1 .214-.539.96.96 0 0 1 .532-.215zM236.448 73.102a4.882 4.882 0 0 1-1.994-.377 5.67 5.67 0 0 1-1.618-1.078 4.49 4.49 0 0 1-1.078-1.617 4.705 4.705 0 0 1-.377-1.993 5.064 5.064 0 0 1 .377-1.994c.277-.59.64-1.135 1.078-1.617a5.32 5.32 0 0 1 1.618-1.078 4.882 4.882 0 0 1 1.994-.377c.436.001.87.056 1.293.162.399.078.781.224 1.131.432a.494.494 0 0 1 .324.324c.06.117.097.245.108.377a.821.821 0 0 1-.215.586.784.784 0 0 1-.586.27.324.324 0 0 1-.215-.055.408.408 0 0 1-.215-.108 3.082 3.082 0 0 0-.754-.215 4.153 4.153 0 0 0-.809-.107 3.504 3.504 0 0 0-1.672.431c-.498.301-.907.73-1.185 1.24a3.45 3.45 0 0 0 0 3.341c.278.512.687.94 1.185 1.24a2.985 2.985 0 0 0 1.672.432c.308-.012.614-.048.916-.107.279-.033.551-.105.809-.215l-.107.431v-2.425l.215.215h-1.563a.739.739 0 0 1-.586-.215.787.787 0 0 1-.272-.593.78.78 0 0 1 .272-.592.812.812 0 0 1 .586-.215h2.318a.787.787 0 0 1 .586.27.803.803 0 0 1 .215.586v2.963c-.01.166-.046.33-.107.485a1.441 1.441 0 0 1-.324.27c-.441.269-.912.486-1.403.645a5.645 5.645 0 0 1-1.617.278zM252.296 68.035a5.028 5.028 0 0 1-.377 1.993 4.983 4.983 0 0 1-.976 1.617 4.315 4.315 0 0 1-1.51 1.078 4.626 4.626 0 0 1-1.942.377 4.225 4.225 0 0 1-1.887-.377 5.128 5.128 0 0 1-1.509-1.078 4.968 4.968 0 0 1-.977-1.617 5.712 5.712 0 0 1-.377-1.993 5.045 5.045 0 0 1 .377-1.994 4.967 4.967 0 0 1 .977-1.617 4.31 4.31 0 0 1 1.509-1.078 4.547 4.547 0 0 1 1.887-.377 4.794 4.794 0 0 1 1.942.377c.564.265 1.076.63 1.51 1.078.425.472.757 1.02.976 1.617.26.632.388 1.31.377 1.994zm-1.832 0a3.677 3.677 0 0 0-.377-1.725 3.822 3.822 0 0 0-1.023-1.24 2.475 2.475 0 0 0-1.51-.431 2.898 2.898 0 0 0-1.51.431c-.449.288-.805.7-1.023 1.186-.27.533-.4 1.126-.377 1.724a3.665 3.665 0 0 0 .377 1.724 3.82 3.82 0 0 0 1.023 1.24c.443.304.973.455 1.51.432a2.677 2.677 0 0 0 2.539-1.672c.267-.514.395-1.09.371-1.67zm-2.965 7.006a.936.936 0 0 1-.646-.162.712.712 0 0 1-.215-.54v-.269a.565.565 0 0 1 .215-.539c.194-.116.419-.173.646-.162.245-.025.492.032.701.162a.711.711 0 0 1 .215.54v.269a.571.571 0 0 1-.215.539c-.209.13-.456.187-.701.162zM255.855 64.748a.734.734 0 0 1-.586-.215.773.773 0 0 1-.272-.592.78.78 0 0 1 .272-.593.82.82 0 0 1 .586-.215h6.25a.735.735 0 0 1 .586.215.774.774 0 0 1 .272.593.781.781 0 0 1-.272.592.818.818 0 0 1-.586.215h-6.25zm3.125 8.201a.893.893 0 0 1-.647-.269.865.865 0 0 1-.269-.586v-8.137h1.832v8.137a.79.79 0 0 1-.269.586.73.73 0 0 1-.647.26v.01zM279.196 63.131a.626.626 0 0 1 .539.215.96.96 0 0 1 .214.54v8.2a.776.776 0 0 1-.269.586.865.865 0 0 1-.586.27.918.918 0 0 1-.377-.055 1.188 1.188 0 0 1-.27-.162l-5.552-7.006.377-.215v6.682a.624.624 0 0 1-.215.539.738.738 0 0 1-.586.215.624.624 0 0 1-.539-.215.954.954 0 0 1-.215-.539v-8.201a.778.778 0 0 1 .269-.586.869.869 0 0 1 .586-.27 1.34 1.34 0 0 1 .432.055.494.494 0 0 1 .324.215l5.336 6.844-.215.162v-6.52a.624.624 0 0 1 .215-.539.96.96 0 0 1 .532-.215zM288.413 73.102a4.869 4.869 0 0 1-1.994-.377 5.658 5.658 0 0 1-1.618-1.078 4.488 4.488 0 0 1-1.078-1.617 4.705 4.705 0 0 1-.377-1.993 5.063 5.063 0 0 1 .377-1.994c.277-.59.64-1.135 1.078-1.617a5.309 5.309 0 0 1 1.618-1.078 4.867 4.867 0 0 1 1.994-.377c.436.001.87.056 1.293.162.399.078.781.224 1.131.432a.483.483 0 0 1 .324.324c.06.117.097.245.107.377a.81.81 0 0 1-.215.586.77.77 0 0 1-.585.27.324.324 0 0 1-.215-.055.407.407 0 0 1-.215-.108 3.094 3.094 0 0 0-.754-.215 4.16 4.16 0 0 0-.809-.107 3.503 3.503 0 0 0-1.67.431c-.498.301-.907.73-1.185 1.24a3.45 3.45 0 0 0 0 3.341c.278.512.687.94 1.185 1.24a2.983 2.983 0 0 0 1.67.432 5.98 5.98 0 0 0 .916-.107c.279-.033.551-.105.809-.215l-.107.431v-2.425l.214.215h-1.562a.735.735 0 0 1-.586-.215.773.773 0 0 1-.273-.593.782.782 0 0 1 .273-.592.807.807 0 0 1 .586-.215h2.318a.78.78 0 0 1 .586.27.808.808 0 0 1 .215.585v2.965c-.01.166-.046.33-.107.484a1.421 1.421 0 0 1-.325.27 6.59 6.59 0 0 1-1.402.646 5.65 5.65 0 0 1-1.617.277zM298.872 65.342l-3.019 7.168a.84.84 0 0 1-.325.432.716.716 0 0 1-.431.162.57.57 0 0 1-.539-.215.91.91 0 0 1-.163-.539.485.485 0 0 1 .055-.27l3.504-8.406c.077-.165.187-.312.324-.431a.522.522 0 0 1 .487-.108.87.87 0 0 1 .484.162.674.674 0 0 1 .324.432l3.45 8.246a.68.68 0 0 1 .054.324.778.778 0 0 1-.269.586.692.692 0 0 1-.539.215.611.611 0 0 1-.432-.162 1.289 1.289 0 0 1-.324-.432l-3.014-7.057.373-.107zm-2.641 5.39.754-1.618h3.774l.269 1.617h-4.797zm2.426-8.202h-.158c-.055 0-.107-.055-.162-.055l-1.402-.754a.874.874 0 0 1-.54-.753.573.573 0 0 1 .27-.485.87.87 0 0 1 .484-.162c.132.011.26.047.377.108.12.052.23.125.325.215l1.185 1.078a.728.728 0 0 1 .162.214c.055.055.055.108.055.215a.487.487 0 0 1-.162.377c-.111-.05-.219.012-.436.012l.002-.01zM314.99 68.034a5.064 5.064 0 0 1-.377 1.994 4.969 4.969 0 0 1-.977 1.617 4.294 4.294 0 0 1-1.509 1.078 4.63 4.63 0 0 1-1.942.377 4.225 4.225 0 0 1-1.887-.377 5.125 5.125 0 0 1-1.509-1.078 4.966 4.966 0 0 1-.977-1.617 5.689 5.689 0 0 1-.377-1.994 5.028 5.028 0 0 1 .377-1.993c.219-.597.55-1.145.977-1.617a4.294 4.294 0 0 1 1.509-1.078 4.547 4.547 0 0 1 1.887-.377 4.8 4.8 0 0 1 1.942.377c.564.265 1.076.63 1.509 1.078.426.472.758 1.02.977 1.617.234.64.361 1.313.377 1.993zm-1.832 0a3.677 3.677 0 0 0-.377-1.724 3.825 3.825 0 0 0-1.024-1.24 2.474 2.474 0 0 0-1.509-.431 2.896 2.896 0 0 0-1.51.431c-.449.288-.805.7-1.024 1.186a3.542 3.542 0 0 0-.377 1.724 3.689 3.689 0 0 0 .377 1.724c.25.481.599.904 1.024 1.24.443.304.973.455 1.51.432a2.68 2.68 0 0 0 2.539-1.672 4.012 4.012 0 0 0 .371-1.67z" fill="#fff"/>
</svg>
