<svg width="40" height="40" viewBox="0 0 40 40" fill="none" xmlns="http://www.w3.org/2000/svg">
    <path d="m29.758 33.657.028-.22 5.052-.028c1.71-1.89 3.04-4.09 3.92-6.483l-6.735-.138v-.277l6.928-.138A20.292 20.292 0 0 0 40 20a19.745 19.745 0 0 0-2.65-9.905L23.605 9.82l-.028-.248 13.302-.22a19.768 19.768 0 0 0-6.293-6.263l-10.682-.277v-.3l9.717-.028A20.036 20.036 0 0 0 5.33 6.344l10.986.139v.3l-11.566.225A20.008 20.008 0 0 0 0 19.973c-.004.258.005.515.028.772l4.417.028v.277H.029a19.935 19.935 0 0 0 3.973 10.952l6.376-.028v.3H4.225a19.986 19.986 0 0 0 30.364 1.41l-4.83-.027z" fill="#BA2028"/>
    <path d="M26.556 16.862c0 1.682-1.326 3.505-4.527 3.447V4.944h-4.2v7.17c0 1.653-1.325 3.446-4.555 3.446v-6.48H9.028v21.23c1.3 0 4.25-1.27 4.25-4.054V20.91a3.383 3.383 0 0 1 3.037-3.253h1.463V35a4.201 4.201 0 0 0 4.224-3.557l.083-5.956a3.262 3.262 0 0 1 2.845-3.088h1.629v8.824h4.389l-.084-5.073c0-1.131-2.015-3.86-4.305-3.86v-.139s4-.22 4.223-3.887V9.743h-4.251s.055 5.321.028 7.11" fill="#fff"/>
</svg>
