<svg xmlns="http://www.w3.org/2000/svg" width="50" height="50" viewBox="0 0 50 50">
    <defs>
        <clipPath id="clip-path">
            <path id="Rectangle_1561" fill="#fff" d="M0 0H50V50H0z" transform="translate(15458 -64)"/>
        </clipPath>
        <style>
            .cls-3{fill:#0071b7}.cls-4{fill:#16347a}
        </style>
    </defs>
    <g id="Mask_Group_2344" clip-path="url(#clip-path)" transform="translate(-15458 64)">
        <g id="Group_5590" transform="translate(15458 -51.143)">
            <path id="Path_8678" d="M-2715.63 585.257a2.908 2.908 0 0 0 2.24-.957 3.868 3.868 0 0 0 .879-2.714 4.666 4.666 0 0 0-.376-1.941 2.888 2.888 0 0 0-1.1-1.286 2.984 2.984 0 0 0-1.625-.457 3.082 3.082 0 0 0-2.2.879 3.928 3.928 0 0 0-.923 2.935 3.649 3.649 0 0 0 .885 2.593 2.913 2.913 0 0 0 2.22.948z" class="cls-3" transform="translate(2719.991 -570.38)"/>
            <g id="Group_5588">
                <path id="Path_8679" d="M-2712.572 493.131a3.044 3.044 0 0 1-1.889.559 3.018 3.018 0 0 1-2.3-.891 3.482 3.482 0 0 1-.848-2.5 3.647 3.647 0 0 1 .857-2.584 2.9 2.9 0 0 1 2.224-.919 2.82 2.82 0 0 1 2.162.9 3.581 3.581 0 0 1 .838 2.534q0 .1-.006.3h-4.92a2.533 2.533 0 0 0 .615 1.665 1.829 1.829 0 0 0 1.379.578 1.711 1.711 0 0 0 1.05-.323 2.143 2.143 0 0 0 .689-1.031l1.121.138a12.061 12.061 0 0 0 .132-1.783 11.984 11.984 0 0 0-11.983-11.984 11.988 11.988 0 0 0-11.711 9.433 4.179 4.179 0 0 1 .957-1.666 4.139 4.139 0 0 1 3.143-1.283 4.361 4.361 0 0 1 2.273.6 3.935 3.935 0 0 1 1.544 1.68 5.459 5.459 0 0 1 .531 2.444 5.362 5.362 0 0 1-.56 2.479 3.816 3.816 0 0 1-1.583 1.655 4.529 4.529 0 0 1-2.212.562 4.306 4.306 0 0 1-2.3-.621 4 4 0 0 1-1.534-1.7 5.127 5.127 0 0 1-.52-2.187q-.014.288-.014.58a11.984 11.984 0 0 0 11.984 11.984 11.987 11.987 0 0 0 11.811-9.952 2.741 2.741 0 0 1-.93 1.333zm-6.87.41h-1.118v-4.013a3.013 3.013 0 0 0-.131-1.022 1.076 1.076 0 0 0-.462-.54 1.472 1.472 0 0 0-.78-.2 1.811 1.811 0 0 0-1.233.453 2.237 2.237 0 0 0-.519 1.721v3.6h-1.118v-6.6h1.006v.938a2.372 2.372 0 0 1 2.1-1.087 2.756 2.756 0 0 1 1.1.214 1.722 1.722 0 0 1 .749.562 2.147 2.147 0 0 1 .348.826 6.381 6.381 0 0 1 .063 1.087z" class="cls-3" transform="translate(2735.43 -477.788)"/>
                <path id="Path_8680" d="M-2480.089 609.9a1.776 1.776 0 0 0-1.295.516 2.041 2.041 0 0 0-.582 1.379h3.684a2.237 2.237 0 0 0-.422-1.249 1.714 1.714 0 0 0-1.385-.646z" class="cls-3" transform="translate(2501.009 -599.973)"/>
            </g>
            <g id="Group_5589" transform="translate(25.205 6.538)">
                <path id="Path_8681" d="M-2393 569.406a2.926 2.926 0 0 1-.758 1.151 3.132 3.132 0 0 1-1.309.683 6.13 6.13 0 0 1-1.486.146h-1.061v3h-2.346V564.8h3.136q.455 0 .765.019a6.741 6.741 0 0 1 .784.088 2.942 2.942 0 0 1 1.4.594 3.159 3.159 0 0 1 1.125 2.535 3.8 3.8 0 0 1-.25 1.37zm-2.6-2.263a2.52 2.52 0 0 0-1.113-.19h-.9v2.282h.992a2.126 2.126 0 0 0 1.069-.215 1 1 0 0 0 .461-.936.971.971 0 0 0-.503-.942z" class="cls-4" transform="translate(2399.957 -564.803)"/>
                <path id="Path_8682" d="M-2296.182 574.388l-.468-1.385h-3.325l-.506 1.385h-2.631l3.844-9.585h1.928l3.813 9.585zm-2.1-6.6h-.038l-.986 3.275h2.01z" class="cls-4" transform="translate(2310.388 -564.803)"/>
                <path id="Path_8683" d="M-2173.016 570.9v3.484h-2.447V570.9l-2.864-6.1h2.656l1.422 3.85 1.435-3.85h2.63z" class="cls-4" transform="translate(2194.979 -564.803)"/>
            </g>
        </g>
    </g>
</svg>
