<svg xmlns="http://www.w3.org/2000/svg" width="75" height="36" viewBox="0 0 75 36">
    <defs>
        <clipPath id="clip-path">
            <path id="Rectangle_728" fill="#fff" d="M0 0H75V36H0z" transform="translate(-7890.77 -7418)"/>
        </clipPath>
        <style>
            .cls-3{fill:#025394}.cls-4{fill:#00acee}
        </style>
    </defs>
    <g id="Mask_Group_12" clip-path="url(#clip-path)" transform="translate(7890.77 7418)">
        <g id="Group_2612" transform="translate(-7891 -7417.24)">
            <path id="Path_5150" d="M468.821 435.865c-.008-.019-.011-.044-.025-.055-.764-.6-.848-1.094-.244-1.828a2.832 2.832 0 0 0 .635-1.806c.026-1.336.006-2.672.017-4.009 0-.27-.12-.205-.265-.135a8.239 8.239 0 0 1-2.137.722 2.956 2.956 0 0 1-3.543-2.048 8.815 8.815 0 0 1-.415-2.919c-.014-2.651-.005-5.3 0-7.955a.963.963 0 0 1 .856-1 1.018 1.018 0 0 1 1.176.618.826.826 0 0 1 .035.341c0 2.746 0 5.492.005 8.239a5.463 5.463 0 0 0 .3 1.92 1.415 1.415 0 0 0 1.842 1.026 8.919 8.919 0 0 0 2-.748c.187-.087.154-.226.154-.367v-8.681-1.452a1.035 1.035 0 0 1 1.075-.934 1.017 1.017 0 0 1 1 .936q0 8.318-.006 16.635a4.333 4.333 0 0 1-.92 2.66 2.552 2.552 0 0 1-1.278.839z" class="cls-3" transform="translate(-439.887 -401.188)"/>
            <path id="Path_5151" d="M759.562 405.868a3.672 3.672 0 0 1-2.352-.6 1.315 1.315 0 0 1-.1-2.157 3.9 3.9 0 0 1 4.336-.342 1.34 1.34 0 0 1 .174 2.309 3.307 3.307 0 0 1-2.058.79z" class="cls-4" transform="translate(-697.653 -390.191)"/>
            <path id="Path_5152" d="M659.893 362.782a3.133 3.133 0 0 1-2-.625 1.273 1.273 0 0 1-.124-2.043 3.49 3.49 0 0 1 2.722-.912 3.269 3.269 0 0 1 1.7.508 1.353 1.353 0 0 1 .1 2.349 3.766 3.766 0 0 1-2.398.723z" class="cls-4" transform="translate(-610.535 -352.402)"/>
            <path id="Path_5153" d="M758.586 448.668a3.265 3.265 0 0 1 1.883.647 1.265 1.265 0 0 1 .173 1.973 3.228 3.228 0 0 1-2.167.953 3.54 3.54 0 0 1-2.269-.473 1.354 1.354 0 0 1-.08-2.418 4.019 4.019 0 0 1 2.46-.682z" class="cls-4" transform="translate(-696.623 -430.91)"/>
            <path id="Path_5154" d="M722.3 372.94a3.259 3.259 0 0 1-2.117-.672 1.322 1.322 0 0 1-.017-2.107 3.872 3.872 0 0 1 4.445-.235 1.292 1.292 0 0 1 .169 2.1 3.555 3.555 0 0 1-2.48.914z" class="cls-4" transform="translate(-665.233 -361.298)"/>
            <path id="Path_5155" d="M604.455 378.727a3.415 3.415 0 0 1-1.839-.462 1.379 1.379 0 0 1-.117-2.449 3.991 3.991 0 0 1 4.095-.209 1.353 1.353 0 0 1 .159 2.4 3.652 3.652 0 0 1-2.298.72z" class="cls-4" transform="translate(-561.834 -366.392)"/>
            <path id="Path_5156" d="M565.181 362.143a2.574 2.574 0 0 1-1.3-.438 1.076 1.076 0 0 1-.075-1.83 3.193 3.193 0 0 1 3.385-.217 1.075 1.075 0 0 1 .146 1.874 3.189 3.189 0 0 1-2.156.611z" class="cls-4" transform="translate(-528.068 -352.468)"/>
            <path id="Path_5157" d="M805.392 470.29a2.877 2.877 0 0 1 1.643.529 1.049 1.049 0 0 1 .079 1.665 3.1 3.1 0 0 1-3.68.162 1.016 1.016 0 0 1-.089-1.59 2.938 2.938 0 0 1 2.047-.766z" class="cls-4" transform="translate(-738.376 -449.883)"/>
            <path id="Path_5158" d="M758.04 346.421a3.224 3.224 0 0 1-1.427-.341 1.09 1.09 0 0 1-.194-1.959 3.126 3.126 0 0 1 3.354-.179 1.071 1.071 0 0 1 .085 1.875 2.935 2.935 0 0 1-1.818.604z" class="cls-4" transform="translate(-697.037 -338.661)"/>
            <path id="Path_5159" d="M816.607 398.2a2.7 2.7 0 0 1 1.468.462 1.043 1.043 0 0 1 .047 1.8 2.9 2.9 0 0 1-2.186.6 2.76 2.76 0 0 1-1.188-.378 1.074 1.074 0 0 1-.152-1.855 3.079 3.079 0 0 1 2.011-.629z" class="cls-4" transform="translate(-748.141 -386.626)"/>
            <path id="Path_5160" d="M655.992 331.371a2.617 2.617 0 0 1-1.635-.468 1.02 1.02 0 0 1-.168-1.628 2.428 2.428 0 0 1 1.505-.716 2.856 2.856 0 0 1 2.086.389 1.057 1.057 0 0 1 .112 1.8 2.869 2.869 0 0 1-1.9.623z" class="cls-4" transform="translate(-607.506 -325.478)"/>
            <path id="Path_5161" d="M653.363 305.9a1.938 1.938 0 0 1-1.216-.446.732.732 0 0 1-.088-1.068 1.238 1.238 0 0 1 .2-.2 2.354 2.354 0 0 1 2.494-.154.822.822 0 0 1 .04 1.466 2.446 2.446 0 0 1-1.43.402z" class="cls-4" transform="translate(-605.759 -303.74)"/>
            <path id="Path_5162" d="M844.42 491.019a1.911 1.911 0 0 1-1.125-.4.733.733 0 0 1-.1-1.151 2.279 2.279 0 0 1 2.809-.194.776.776 0 0 1 .027 1.231 2.272 2.272 0 0 1-1.611.514z" class="cls-4" transform="translate(-773.439 -466.191)"/>
            <path id="Path_5163" d="M788.176 322.872a1.949 1.949 0 0 1 1.453.436.757.757 0 0 1 .018 1.162 2.333 2.333 0 0 1-2.715.2.776.776 0 0 1-.1-1.246 1.9 1.9 0 0 1 1.344-.552z" class="cls-4" transform="translate(-723.95 -320.528)"/>
            <path id="Path_5164" d="M864.015 395.443a1.787 1.787 0 0 1 1.114.361.775.775 0 0 1 .079 1.249 2.265 2.265 0 0 1-2.711.147.771.771 0 0 1-.037-1.268 2.223 2.223 0 0 1 1.555-.489z" class="cls-4" transform="translate(-790.271 -384.207)"/>
            <path id="Path_5165" d="M534.221 348.9a1.858 1.858 0 0 1-1.284-.417.753.753 0 0 1-.053-1.135 2.255 2.255 0 0 1 2.779-.193.751.751 0 0 1 .1 1.156 2.016 2.016 0 0 1-1.542.589z" class="cls-4" transform="translate(-501.149 -341.49)"/>
            <path id="Path_5166" fill="#05518c" d="M275.684 351.855v20.391c0 .149.063.323-.108.433 0-.1-.011-.21-.011-.315q0-10.1.005-20.2c-.001-.099-.113-.277.114-.309z" transform="translate(-275.541 -345.96)"/>
            <path id="Path_5167" d="M284.345 355.033a3.627 3.627 0 0 0-3.606-3.327c-1.627-.069-3.259-.013-4.889-.012-.1.141-.061.3-.061.458v19.867a1.165 1.165 0 0 1-.046.5.532.532 0 0 0 .1.413 1.086 1.086 0 0 0 1.269.454 1.011 1.011 0 0 0 .691-1.009c-.017-2.692 0-5.385-.015-8.077 0-.26.078-.313.316-.306.546.017 1.094 0 1.641.007a4.684 4.684 0 0 0 1.527-.17 4.44 4.44 0 0 0 3.086-3.655 14.207 14.207 0 0 0-.013-5.143zm-1.926 4.637a3.551 3.551 0 0 1-.581 1.707 2.011 2.011 0 0 1-1.679.845c-.7.016-1.409 0-2.112.01-.214 0-.261-.067-.26-.267.008-1.377 0-2.754 0-4.131s.007-2.733-.006-4.1c0-.236.058-.3.293-.293.672.017 1.345 0 2.018.006a2 2 0 0 1 2.19 1.734 6.423 6.423 0 0 1 .188 1.558 28.832 28.832 0 0 1-.051 2.93z" class="cls-3" transform="translate(-275.707 -345.799)"/>
            <path id="Path_5168" d="M367.357 413.157c-1.074-2.405-3.962-3.421-6.109-3.215a.781.781 0 0 0-.745.966.934.934 0 0 0 .854.793 6.35 6.35 0 0 1 1.823.3 3.661 3.661 0 0 1 2.462 2.609 8.112 8.112 0 0 1 .072 1.509c.008.229-.053.243-.244.143a6.69 6.69 0 0 0-2.321-.75 3.167 3.167 0 0 0-3.718 2.091 8.257 8.257 0 0 0-.358 4.193 2.99 2.99 0 0 0 1.8 2.461 3.624 3.624 0 0 0 3.729-.6 13.471 13.471 0 0 0 1.112-1.009v1a1.049 1.049 0 0 0 2.069-.019v-8.361a5.1 5.1 0 0 0-.426-2.111zm-2.143 8.306a3.164 3.164 0 0 1-1.689 1.033 3.235 3.235 0 0 1-1.528 0 1.146 1.146 0 0 1-.92-1.04 7.5 7.5 0 0 1 .18-2.753 1.764 1.764 0 0 1 2.4-1.368 9.008 9.008 0 0 1 1.886.78.288.288 0 0 1 .162.305v1.073a3.009 3.009 0 0 0 0 .347 1.941 1.941 0 0 1-.491 1.623z" class="cls-3" transform="translate(-348.734 -396.906)"/>
            <path id="Path_5169" d="M570.658 413.94a4.757 4.757 0 0 0-.9-2.319 3.661 3.661 0 0 0-2.944-1.308 3.794 3.794 0 0 0-4.133 3.1 15.325 15.325 0 0 0-.389 3.308 19.074 19.074 0 0 0 .419 5.258 3.594 3.594 0 0 0 3.267 3.094 3.865 3.865 0 0 0 4.432-2.866 18.2 18.2 0 0 0 .488-4.594 28.788 28.788 0 0 0-.24-3.673zm-1.889 7.09a3.285 3.285 0 0 1-.547 1.395 1.825 1.825 0 0 1-3.173-.115 5.547 5.547 0 0 1-.636-2.127 29.849 29.849 0 0 1-.057-5.637 3.1 3.1 0 0 1 .431-1.4 2.008 2.008 0 0 1 1.878-.994 1.867 1.867 0 0 1 1.723 1.015 5.182 5.182 0 0 1 .493 2.445c.026.683.005 1.368.005 2.051a22.111 22.111 0 0 1-.117 3.366z" class="cls-3" transform="translate(-527.144 -397.252)"/>
            <path id="Path_5170" d="M669.05 413.965a4.565 4.565 0 0 0-.875-2.329 3.683 3.683 0 0 0-3-1.332 3.774 3.774 0 0 0-4.086 3.042 19 19 0 0 0-.424 4.239 17.8 17.8 0 0 0 .507 4.637 3.679 3.679 0 0 0 2.107 2.594 4.417 4.417 0 0 0 2.326.221 3.541 3.541 0 0 0 2.831-1.957 6.8 6.8 0 0 0 .665-2.414 28.785 28.785 0 0 0-.051-6.701zm-1.887 6.994a3.7 3.7 0 0 1-.6 1.54 1.839 1.839 0 0 1-3.025-.036 5.339 5.339 0 0 1-.725-2.192 25.622 25.622 0 0 1-.055-5.79 2.588 2.588 0 0 1 .912-1.906 2.066 2.066 0 0 1 3.187.754 5.727 5.727 0 0 1 .424 2.275c.024.683.005 1.367.005 2.051a21.116 21.116 0 0 1-.123 3.304z" class="cls-3" transform="translate(-613.479 -397.246)"/>
        </g>
    </g>
</svg>
