<svg xmlns="http://www.w3.org/2000/svg" width="20" height="20" viewBox="0 0 20 20">
    <defs>
        <style>
            .cls-2{fill:#cf2831}
        </style>
    </defs>
    <g id="Group_6342" transform="translate(573.062 -140.535)">
        <path id="Rectangle_1869" fill="none" d="M0 0H20V20H0z" transform="translate(-573.062 140.535)"/>
        <path id="Path_9680" d="M-561.329 146.721a3.352 3.352 0 0 1 1.109 2.185.56.56 0 0 0 .544.5h.557a.573.573 0 0 0 .557-.589.521.521 0 0 0 0-.056 5.151 5.151 0 0 0-1.733-3.416 3.354 3.354 0 0 1-1.1-2.185.559.559 0 0 0-.544-.5h-.557a.573.573 0 0 0-.561.586.391.391 0 0 0 0 .059 5.153 5.153 0 0 0 1.728 3.416z" class="cls-2"/>
        <path id="Path_9681" d="M-557.95 146.721a3.351 3.351 0 0 1 1.105 2.185.56.56 0 0 0 .544.5h.557a.573.573 0 0 0 .557-.589.521.521 0 0 0 0-.056 5.151 5.151 0 0 0-1.733-3.416 3.354 3.354 0 0 1-1.1-2.185.559.559 0 0 0-.544-.5h-.557a.573.573 0 0 0-.557.59.524.524 0 0 0 0 .055 5.153 5.153 0 0 0 1.728 3.416z" class="cls-2"/>
        <path id="Path_9682" d="M-568.687 147.16a2.814 2.814 0 0 0 2.812-2.813 2.812 2.812 0 0 0-2.812-2.812 2.812 2.812 0 0 0-2.812 2.812 2.813 2.813 0 0 0 2.812 2.813zm0-3.937a1.127 1.127 0 0 1 1.125 1.126 1.128 1.128 0 0 1-1.125 1.125 1.128 1.128 0 0 1-1.125-1.125 1.127 1.127 0 0 1 1.125-1.126z" class="cls-2"/>
        <path id="Path_9683" d="M-555.187 151.66h-6.75l-3.9-2.925a2.612 2.612 0 0 0-1.35-.45h-2.625a2.25 2.25 0 0 0-2.25 2.25v2.907a.843.843 0 0 0 .844.843.842.842 0 0 0 .843-.843v-.094h2.25v4.5h-1.688a.563.563 0 0 1-.562-.562v-.563h-.006a.84.84 0 0 0-.838-.818.841.841 0 0 0-.839.818h-.005v.563a2.25 2.25 0 0 0 2.25 2.25h13.5a2.25 2.25 0 0 0 2.249-2.236v-4.514a1.125 1.125 0 0 0-1.123-1.126zm-15.187 0v-1.125a.563.563 0 0 1 .563-.563h2.624a.56.56 0 0 1 .337.113l2.1 1.575zm3.937 6.187v-4.5h2.531v4.5zm4.219 0v-4.5h2.531v4.5zm6.475-4.191a.271.271 0 0 1-.006-.028v3.657a.564.564 0 0 1-.562.563H-558v-4.5h2.25v.279a.288.288 0 0 1 .006-.029.288.288 0 0 0-.006.029.24.24 0 0 0 .007.029z" class="cls-2"/>
    </g>
</svg>
