<svg xmlns="http://www.w3.org/2000/svg" width="140" height="149" viewBox="0 0 140 149">
    <g>
        <g>
            <path fill="#e5e5e5" d="M64.125 43.652a4.365 4.365 0 1 0-4.375-4.365 4.37 4.37 0 0 0 4.375 4.365zm0-17.461a4.365 4.365 0 1 0-4.375-4.365 4.37 4.37 0 0 0 4.375 4.365zm52.5-8.73h-35a4.365 4.365 0 1 0 0 8.73h35a4.365 4.365 0 1 0 0-8.73zm35 105.348h-4.375V13.1A13.125 13.125 0 0 0 134.125 0h-105A13.125 13.125 0 0 0 16 13.1v17.457a4.37 4.37 0 0 0 4.375 4.365H33.5V135.9A13.125 13.125 0 0 0 46.625 149h87.5A21.875 21.875 0 0 0 156 127.174a4.37 4.37 0 0 0-4.375-4.365zM33.5 26.191h-8.75V13.1a4.375 4.375 0 0 1 8.75 0zM51 127.174v8.73a4.375 4.375 0 0 1-8.75 0V13.1a13.014 13.014 0 0 0-.75-4.37h92.625a4.375 4.375 0 0 1 4.375 4.37v109.709H55.375A4.37 4.37 0 0 0 51 127.174zm83.125 13.1H59a13.008 13.008 0 0 0 .753-4.365v-4.368H146.5a13.144 13.144 0 0 1-12.375 8.729zm-17.5-105.348h-35a4.365 4.365 0 1 0 0 8.73h35a4.365 4.365 0 1 0 0-8.73zm0 17.461h-52.5a4.37 4.37 0 0 0-4.375 4.365v43.943a4.37 4.37 0 0 0 4.375 4.365h52.5a4.37 4.37 0 0 0 4.375-4.369V56.748a4.37 4.37 0 0 0-4.375-4.365zM86 61.113h8.75v8.73H86zm26.25 35.213H68.5V61.113h8.75v13.1a4.37 4.37 0 0 0 4.375 4.365h17.5a4.37 4.37 0 0 0 4.375-4.365v-13.1h8.75z" transform="translate(-16) translate(16) translate(-16)"/>
        </g>
    </g>
</svg>
