<svg xmlns="http://www.w3.org/2000/svg" width="121" height="35" viewBox="0 0 121 35">
    <defs>
        <clipPath id="clip-path">
            <path id="Rectangle_1558" d="M0 0H35V35H0z" class="cls-1" transform="translate(15040 -190)"/>
        </clipPath>
        <clipPath id="clip-path-2">
            <path id="Rectangle_1559" d="M0 0H35V35H0z" class="cls-1" transform="translate(15008 -197)"/>
        </clipPath>
        <clipPath id="clip-path-3">
            <path id="Rectangle_1560" d="M0 0H35V35H0z" transform="translate(15461 13)"/>
        </clipPath>
        <style>
            .cls-1{fill:#fff}.cls-9{fill:#28a032}.cls-11{fill:#0055a5}
        </style>
    </defs>
    <g id="Group_5585" transform="translate(-1095 -422)">
        <g id="Mask_Group_2341" clip-path="url(#clip-path)" transform="translate(-13902 612)">
            <g id="Group_5581" transform="translate(15040 -182.708)">
                <circle id="Ellipse_67" cx="10.794" cy="10.794" r="10.794" fill="#ee0005"/>
                <circle id="Ellipse_68" cx="10.794" cy="10.794" r="10.794" fill="#f9a000" transform="translate(13.411)"/>
                <path id="Path_4797" fill="#ff6300" d="M206.012 116.1a10.774 10.774 0 0 0 4.089 8.459 10.794 10.794 0 0 0 0-16.917 10.775 10.775 0 0 0-4.089 8.458z" transform="translate(-192.601 -105.306)"/>
            </g>
        </g>
        <g id="Mask_Group_2342" clip-path="url(#clip-path-2)" transform="translate(-13827 619)">
            <g id="Group_5582" transform="translate(15011 -190)">
                <path id="Path_4812" fill="#00529e" d="M108.225 143.37h-5.111a3.93 3.93 0 0 0-4.151 4.151v7.425a.06.06 0 0 0 0 .011 2.268 2.268 0 0 0 2.27 1.633 2.012 2.012 0 0 0 2.126-1.982V150.9h3.124v3.66c0 2.087-2.687 3.072-4.5 3.081a4.927 4.927 0 0 1-2.887-.905.053.053 0 0 0-.055 0 .053.053 0 0 0-.077.047v8.2a.053.053 0 0 0 .053.053h5.256a4.224 4.224 0 0 0 4.006-4.007v-17.6a.053.053 0 0 0-.054-.059z" transform="translate(-98.963 -143.37)"/>
                <path id="Path_4811" fill="#c70c2f" d="M216.5 143.37h-5.063a3.868 3.868 0 0 0-4.151 4.1v4.195a.053.053 0 0 0 .087.041 3.239 3.239 0 0 1 2.039-.808h5.444v.99a17.082 17.082 0 0 0-3.129-.421 2.515 2.515 0 0 0-2.512 2.512v.048a2.515 2.515 0 0 0 2.512 2.512 16.391 16.391 0 0 0 3.129-.373v.894h-5.444a2.882 2.882 0 0 1-2.036-.8.053.053 0 0 0-.091.038v8.679a.053.053 0 0 0 .053.053h5.207a4.224 4.224 0 0 0 4.007-4.007v-17.6a.053.053 0 0 0-.052-.053z" transform="translate(-196.967 -143.37)"/>
                <g id="Group_2385" transform="translate(20.733)">
                    <path id="Path_4808" d="M333.324 259.025a.053.053 0 0 0 .053.053h2.266a1.162 1.162 0 1 0 0-2.324h-2.266a.053.053 0 0 0-.053.053z" class="cls-9" transform="translate(-331.733 -245.954)"/>
                    <path id="Path_4809" d="M325.834 143.37h-5.015a4.128 4.128 0 0 0-3.145 1.246 4.04 4.04 0 0 0-1.054 2.725v3.507a.053.053 0 0 0 .053.053h6.075a1.538 1.538 0 1 1 0 3.076.053.053 0 1 0 0 .106 1.578 1.578 0 0 1 1.683 1.49 1.56 1.56 0 0 1-1.683 1.49h-6.075a.053.053 0 0 0-.053.053v7.859a.053.053 0 0 0 .053.053h5.207a4.224 4.224 0 0 0 4.007-4.007v-17.6a.053.053 0 0 0-.053-.051z" class="cls-9" transform="translate(-316.62 -143.37)"/>
                    <path id="Path_4810" d="M333.377 230.682h2.266a1.129 1.129 0 0 0 1.114-1.114 1.208 1.208 0 0 0-1.162-1.162h-2.218a.053.053 0 0 0-.053.053v2.17a.053.053 0 0 0 .053.053z" class="cls-9" transform="translate(-331.733 -220.306)"/>
                </g>
            </g>
        </g>
        <g id="Mask_Group_2343" clip-path="url(#clip-path-3)" transform="translate(-14366 409)">
            <g id="Group_5584" transform="translate(15461 24.667)">
                <g id="Group_5583">
                    <path id="Path_8672" d="M56.058 63.156H53.2l1.785-10.97h2.856z" class="cls-11" transform="translate(-40.885 -51.99)"/>
                    <path id="Path_8673" d="M21.141 52.187l-2.723 7.545-.318-1.625-.961-4.933a1.222 1.222 0 0 0-1.355-.988h-4.5l-.053.185a10.669 10.669 0 0 1 2.987 1.254l2.481 9.53h2.976l4.544-10.97z" class="cls-11" transform="translate(-11.227 -51.991)"/>
                    <path id="Path_8674" d="M103.419 63.157h2.622l-2.286-10.97h-2.3a1.312 1.312 0 0 0-1.315.813l-4.259 10.157h2.977l.6-1.629h3.631zm-3.143-3.88l1.5-4.105.844 4.105z" class="cls-11" transform="translate(-71.041 -51.991)"/>
                    <path id="Path_8675" d="M77.063 54.352L77.47 52a8.243 8.243 0 0 0-2.569-.478c-1.417 0-4.783.62-4.783 3.631 0 2.834 3.95 2.869 3.95 4.357s-3.543 1.222-4.712.283l-.425 2.463a8 8 0 0 0 3.224.62c1.949 0 4.889-1.01 4.889-3.756 0-2.852-3.986-3.118-3.986-4.357s2.783-1.084 4.005-.411z" class="cls-11" transform="translate(-52 -51.518)"/>
                </g>
                <path id="Path_8676" fill="#fc9220" d="M18.1 58.108l-.961-4.933a1.222 1.222 0 0 0-1.355-.988h-4.5l-.053.185a11.073 11.073 0 0 1 4.235 2.128 8.556 8.556 0 0 1 2.634 3.608z" transform="translate(-11.227 -51.991)"/>
            </g>
        </g>
    </g>
</svg>
