<svg width="63" height="63" viewBox="0 0 63 63" fill="none" xmlns="http://www.w3.org/2000/svg">
<path d="M5 30.5C5 33.8152 6.31696 36.9946 8.66117 39.3388C11.0054 41.683 14.1848 43 17.5 43C22.1193 43.1721 26.5363 44.9389 30 48C33.4637 44.9389 37.8807 43.1721 42.5 43C45.8152 43 48.9946 41.683 51.3388 39.3388C53.683 36.9946 55 33.8152 55 30.5V18H42.5C37.8807 18.1721 33.4637 19.9389 30 23C26.5363 19.9389 22.1193 18.1721 17.5 18H5V30.5Z" stroke="black" stroke-width="5" stroke-linecap="round" stroke-linejoin="round"/>
<path d="M15 28C19 28 23 29.25 23 33C17.6667 33 15 33 15 28Z" stroke="black" stroke-width="5" stroke-linecap="round" stroke-linejoin="round"/>
<path d="M45 28C41 28 37 29.25 37 33C42.3333 33 45 33 45 28Z" stroke="black" stroke-width="5" stroke-linecap="round" stroke-linejoin="round"/>
</svg>
