<svg xmlns="http://www.w3.org/2000/svg" id="g10" width="134.117" height="39.773" viewBox="0 0 134.117 39.773">
    <defs>
        <linearGradient id="linear-gradient" x1="1.031" x2="-.264" y1="-11.474" y2="-10.798" gradientUnits="objectBoundingBox">
            <stop offset="0" stop-color="#00a0ff"/>
            <stop offset=".007" stop-color="#00a1ff"/>
            <stop offset=".26" stop-color="#00beff"/>
            <stop offset=".512" stop-color="#00d2ff"/>
            <stop offset=".76" stop-color="#00dfff"/>
            <stop offset="1" stop-color="#00e3ff"/>
        </linearGradient>
        <linearGradient id="linear-gradient-2" x1="1.221" x2="-1.154" y1="-33.254" y2="-33.254" gradientUnits="objectBoundingBox">
            <stop offset="0" stop-color="#ffe000"/>
            <stop offset=".409" stop-color="#ffbd00"/>
            <stop offset=".775" stop-color="orange"/>
            <stop offset="1" stop-color="#ff9c00"/>
        </linearGradient>
        <linearGradient id="linear-gradient-3" x1=".453" x2="-.907" y1="-22.925" y2="-21.139" gradientUnits="objectBoundingBox">
            <stop offset="0" stop-color="#ff3a44"/>
            <stop offset="1" stop-color="#c31162"/>
        </linearGradient>
        <linearGradient id="linear-gradient-4" x1="-.594" x2=".013" y1="-22.358" y2="-21.561" gradientUnits="objectBoundingBox">
            <stop offset="0" stop-color="#32a071"/>
            <stop offset=".068" stop-color="#2da771"/>
            <stop offset=".476" stop-color="#15cf74"/>
            <stop offset=".801" stop-color="#06e775"/>
            <stop offset="1" stop-color="#00f076"/>
        </linearGradient>
        <style>
            .cls-2{fill:#fff;stroke:#fff;stroke-miterlimit:10;stroke-width:.16px}
        </style>
    </defs>
    <g id="g12">
        <path id="path14" d="M221.266 987.962H97.083a4.986 4.986 0 0 1-4.967-4.971V953.16a4.986 4.986 0 0 1 4.967-4.971h124.183a4.985 4.985 0 0 1 4.967 4.971v29.83a4.986 4.986 0 0 1-4.967 4.972z" transform="translate(-92.116 -948.189)"/>
        <path id="path16" fill="#a6a6a6" d="M221.266 948.986a4.178 4.178 0 0 1 4.171 4.174v29.829a4.178 4.178 0 0 1-4.171 4.174H97.083a4.178 4.178 0 0 1-4.171-4.174V953.16a4.178 4.178 0 0 1 4.171-4.174h124.183m0-.8H97.083a4.986 4.986 0 0 0-4.967 4.971v29.833a4.986 4.986 0 0 0 4.967 4.971h124.183a4.986 4.986 0 0 0 4.967-4.972V953.16a4.985 4.985 0 0 0-4.967-4.971z" transform="translate(-92.116 -948.189)"/>
        <g id="g18" transform="translate(41.067 6.831)">
            <path id="path20" d="M352.33 993.228a2.683 2.683 0 0 1-.743 1.982 2.944 2.944 0 0 1-2.211.88 3.056 3.056 0 0 1-2.209-.89 3.141 3.141 0 0 1 0-4.421 3.041 3.041 0 0 1 2.209-.895 3.176 3.176 0 0 1 1.233.251 2.444 2.444 0 0 1 .939.662l-.523.521a2.051 2.051 0 0 0-1.649-.7 2.31 2.31 0 0 0-1.642.657 2.473 2.473 0 0 0 0 3.427 2.331 2.331 0 0 0 1.642.657 2.3 2.3 0 0 0 1.677-.662 1.852 1.852 0 0 0 .5-1.2h-2.181v-.715h2.909a2.009 2.009 0 0 1 .049.446z" class="cls-2" transform="translate(-346.257 -989.884)"/>
        </g>
        <g id="g22" transform="translate(48.198 6.968)">
            <path id="path24" d="M393.843 991.453h-2.733v1.88h2.463v.715h-2.463v1.88h2.733v.729h-3.506v-5.934h3.506z" class="cls-2" transform="translate(-390.337 -990.724)"/>
        </g>
        <g id="g26" transform="translate(52.474 6.969)">
            <path id="path28" d="M419.259 996.661h-.773v-5.2h-1.677v-.729h4.127v.729h-1.677z" class="cls-2" transform="translate(-416.809 -990.728)"/>
        </g>
        <g id="g30" transform="translate(59.542 6.968)">
            <path id="path32" d="M460.467 996.658v-5.934h.772v5.933z" class="cls-2" transform="translate(-460.467 -990.724)"/>
        </g>
        <g id="g34" transform="translate(61.261 6.969)">
            <path id="path36" d="M473.633 996.661h-.767v-5.2h-1.682v-.729h4.132v.729h-1.682z" class="cls-2" transform="translate(-471.183 -990.728)"/>
        </g>
        <g id="g38" transform="translate(67.852 6.831)">
            <path id="path40" d="M517.313 995.19a3.148 3.148 0 0 1-4.406 0 3.186 3.186 0 0 1 0-4.407 3.135 3.135 0 0 1 4.4.005 3.173 3.173 0 0 1 .005 4.4zm-3.834-.5a2.328 2.328 0 0 0 3.262 0 2.508 2.508 0 0 0 0-3.412 2.328 2.328 0 0 0-3.262 0 2.508 2.508 0 0 0 0 3.415z" class="cls-2" transform="translate(-512.022 -989.884)"/>
        </g>
        <g id="g42" transform="translate(75.061 6.968)">
            <path id="path44" d="M556.586 996.658v-5.934h.939l2.919 4.615h.034l-.034-1.141v-3.474h.772v5.933h-.806l-3.057-4.842h-.034l.034 1.146v3.7z" class="cls-2" transform="translate(-556.586 -990.724)"/>
        </g>
        <path id="path46" fill="#fff" d="M371.46 1056.387a4.21 4.21 0 1 0 4.278 4.21 4.175 4.175 0 0 0-4.278-4.21zm0 6.761a2.556 2.556 0 1 1 2.406-2.551 2.446 2.446 0 0 1-2.406 2.551zm-9.324-6.761a4.21 4.21 0 1 0 4.273 4.21 4.172 4.172 0 0 0-4.273-4.21zm0 6.761a2.556 2.556 0 1 1 2.4-2.551 2.449 2.449 0 0 1-2.4 2.551zm-11.1-5.471v1.789h4.322a3.694 3.694 0 0 1-.983 2.247 4.466 4.466 0 0 1-3.34 1.305 4.751 4.751 0 0 1 0-9.5 4.613 4.613 0 0 1 3.257 1.276l1.276-1.261a6.345 6.345 0 0 0-4.532-1.8 6.541 6.541 0 1 0 0 13.077 6.082 6.082 0 0 0 4.616-1.836 6.369 6.369 0 0 0 1.466-5.293zm45.37 1.387a3.946 3.946 0 0 0-3.648-2.677 4.022 4.022 0 0 0-4.014 4.21 4.143 4.143 0 0 0 4.225 4.209 4.235 4.235 0 0 0 3.55-1.866l-1.452-.956a2.44 2.44 0 0 1-2.1 1.164 2.168 2.168 0 0 1-2.063-1.276l5.7-2.33zm-5.808 1.4a2.322 2.322 0 0 1 2.224-2.454 1.658 1.658 0 0 1 1.585.893zm-4.63 4.084h1.873v-12.372h-1.872zm-3.066-7.226h-.063a2.968 2.968 0 0 0-2.239-.938 4.211 4.211 0 0 0 0 8.419 2.922 2.922 0 0 0 2.239-.956h.063v.6a2.168 2.168 0 0 1-2.273 2.474 2.362 2.362 0 0 1-2.147-1.5l-1.629.672a4.063 4.063 0 0 0 3.775 2.489c2.2 0 4.048-1.277 4.048-4.383v-7.558h-1.775zm-2.142 5.823a2.559 2.559 0 0 1 0-5.1 2.569 2.569 0 0 1 0 5.1zm24.413-10.97H400.7v12.371h1.867v-4.687h2.611a3.85 3.85 0 1 0 0-7.683zm.049 5.963h-2.66v-4.238h2.66a2.122 2.122 0 1 1 0 4.242zm11.544-1.778a3.51 3.51 0 0 0-3.329 1.894l1.657.687a1.773 1.773 0 0 1 1.706-.909 1.794 1.794 0 0 1 1.966 1.591v.13a4.14 4.14 0 0 0-1.951-.479c-1.785 0-3.6.971-3.6 2.783a2.878 2.878 0 0 0 3.105 2.726 2.651 2.651 0 0 0 2.386-1.212h.064v.956h1.8v-4.745c0-2.193-1.657-3.422-3.8-3.422zm-.225 6.779c-.611 0-1.462-.3-1.462-1.048 0-.958 1.061-1.325 1.98-1.325a3.378 3.378 0 0 1 1.707.416 2.258 2.258 0 0 1-2.226 1.957zm10.6-6.509L425 1062h-.064l-2.219-5.363H420.7l3.335 7.5-1.9 4.171h1.952l5.138-11.665zm-16.834 7.917h1.873v-12.372h-1.873z" transform="translate(-304.299 -1034.92)"/>
        <g id="g48" transform="translate(9.985 7.481)">
            <path id="path64" fill="url(#linear-gradient)" d="M153.861 993.612A1.96 1.96 0 0 0 153.4 995v21.888a1.956 1.956 0 0 0 .464 1.392l.073.067 12.41-12.26v-.289l-12.41-12.26z" transform="translate(-153.397 -993.54)"/>
        </g>
        <g id="g66" transform="translate(22.736 15.654)">
            <path id="path78" fill="url(#linear-gradient-2)" d="M236.985 1052.163l-4.132-4.089v-.289l4.137-4.089.093.053 4.9 2.755c1.4.782 1.4 2.068 0 2.855l-4.9 2.75z" transform="translate(-232.853 -1043.696)"/>
        </g>
        <g id="g80" transform="translate(10.449 19.93)">
            <path id="path88" fill="url(#linear-gradient-3)" d="M172.959 1073.854l-4.23-4.18-12.482 12.339a1.646 1.646 0 0 0 2.083.058l14.629-8.216" transform="translate(-156.247 -1069.674)"/>
        </g>
        <g id="g90" transform="translate(10.449 7.117)">
            <path id="path104" fill="url(#linear-gradient-4)" d="M172.959 1000.115L158.33 991.9a1.651 1.651 0 0 0-2.083.063l12.482 12.333z" transform="translate(-156.247 -991.569)"/>
        </g>
    </g>
</svg>
